<svg width="142" height="130" viewBox="0 0 142 130" fill="none" xmlns="http://www.w3.org/2000/svg">
<path d="M133.482 26.3572H117.037V29.4948H119.343V126.862H15.7008V29.4948H18.9005V26.3572H7.8504C3.52214 26.3572 0 29.8917 0 34.2076V122.149C0 126.478 3.53454 130 7.8504 130H133.482C137.81 130 141.332 126.465 141.332 122.149V34.2076C141.332 29.8793 137.797 26.3572 133.482 26.3572ZM12.5507 126.862H7.838C5.1964 126.862 3.12528 124.791 3.12528 122.149V34.2076C3.12528 31.566 5.1964 29.4948 7.838 29.4948H12.5507V126.862ZM138.194 122.149C138.194 124.791 136.123 126.862 133.482 126.862H122.481V29.4948H133.469C136.111 29.4948 138.182 31.566 138.182 34.2076V122.149H138.194Z" fill="#F96D32"/>
<path d="M130.346 81.311C132.079 81.311 133.483 79.9062 133.483 78.1733C133.483 76.4404 132.079 75.0356 130.346 75.0356C128.613 75.0356 127.208 76.4404 127.208 78.1733C127.208 79.9062 128.613 81.311 130.346 81.311Z" fill="#F96D32"/>
<path fill-rule="evenodd" clip-rule="evenodd" d="M34.5456 49.3967L46.8979 32.9394L59.2502 41.1743L79.8126 20.5747L100.4 41.1619V53.5142H34.5456V49.3967ZM104.517 8.23486H30.4282V57.6192H104.517V8.23486ZM112.74 4.11743V65.8541H108.622H22.1934V61.7366V0H26.3108H112.74V4.11743Z" fill="#F96D32"/>
</svg>
