<svg width="144" height="130" viewBox="0 0 144 130" fill="none" xmlns="http://www.w3.org/2000/svg">
<path d="M127.005 52.6628H91.411V56.9669H127.005C133.883 56.9669 139.69 62.5463 139.69 69.6515V113.057C139.69 119.934 134.111 125.741 127.005 125.741H16.9659C10.0885 125.741 4.28134 120.162 4.28134 113.057V69.6515C4.28134 62.774 9.86073 56.9669 16.9659 56.9669H46.5481V52.6628H16.9659C7.51511 52.6628 0 60.1779 0 69.6287V113.034C0 122.485 7.51511 130 16.9659 130H127.005C136.456 130 143.971 122.485 143.971 113.034V69.6287C143.971 60.2006 136.456 52.6628 127.005 52.6628Z" fill="#F96D32"/>
<path d="M120.356 56.9669H116.052V125.742H120.356V56.9669Z" fill="#F96D32"/>
<path d="M23.6381 56.9669H19.334V125.742H23.6381V56.9669Z" fill="#F96D32"/>
<path d="M12.8891 84.9095H8.58496V97.7991H12.8891V84.9095Z" fill="#F96D32"/>
<path fill-rule="evenodd" clip-rule="evenodd" d="M85.6244 94.679H77.4716L83.3471 88.7808C83.6659 88.4619 83.8481 88.0065 83.8481 87.5282C83.8481 87.0728 83.6659 86.6173 83.3243 86.2985L72.2338 75.3902L83.3243 64.2314C83.6431 63.9126 83.8253 63.4571 83.8253 62.9789C83.8253 62.5234 83.6431 62.068 83.3016 61.7491L72.2111 50.8408L83.3016 39.682C83.6204 39.3632 83.8026 38.9077 83.8026 38.4295C83.8026 37.9741 83.6204 37.5186 83.2788 37.1998L72.1883 26.2915L83.2788 15.1327C83.5976 14.8139 83.7798 14.3584 83.7798 13.8802C83.7798 13.4247 83.5976 12.9693 83.256 12.6504L70.913 0.512394C70.2298 -0.170798 69.1139 -0.170798 68.4307 0.512394L56.0878 12.6504C55.7462 12.9693 55.564 13.4247 55.564 13.8802C55.564 14.3356 55.7461 14.7911 56.065 15.1327L67.1554 26.2915L56.065 37.1998C55.7234 37.5186 55.5412 37.9741 55.5412 38.4295C55.5412 38.885 55.7234 39.3404 56.0422 39.682L67.1327 50.8408L56.0422 61.7491C55.7006 62.068 55.5184 62.5234 55.5184 62.9789C55.5184 63.4343 55.7006 63.8898 56.0194 64.2314L67.1099 75.3902L56.0194 86.2985C55.6778 86.6173 55.4956 87.0728 55.4956 87.5282C55.4956 87.9837 55.6778 88.4392 55.9967 88.7808L61.8721 94.679H53.7193C52.7401 94.679 51.9658 95.4533 51.9658 96.4325V103.447C51.9658 104.403 52.7629 105.2 53.7193 105.2H85.4422C86.4215 105.2 87.1957 104.426 87.1957 103.447V96.4325C87.3779 95.476 86.5809 94.679 85.6244 94.679Z" fill="#F96D32"/>
</svg>
