<svg width="102" height="130" viewBox="0 0 102 130" fill="none" xmlns="http://www.w3.org/2000/svg">
<path d="M85.7419 69.7187C76.3821 67.3723 63.9629 66.0889 50.7788 66.0889C37.5947 66.0889 25.1885 67.3723 15.8157 69.7187C5.32808 72.3374 0 75.9024 0 80.31V119.914C0 123.998 4.60212 127.355 13.6637 129.922C14.273 130.091 14.9342 129.974 15.4398 129.585C15.9454 129.196 16.2435 128.6 16.2435 127.965V125.592C25.2403 123.272 37.7114 121.937 50.7659 121.937C63.8333 121.937 76.2914 123.259 85.2882 125.592V127.965C85.2882 128.6 85.5864 129.196 86.0919 129.585C86.4549 129.857 86.8827 130 87.3105 130C87.492 130 87.6865 129.974 87.868 129.922C96.9296 127.355 101.532 123.985 101.532 119.914V80.31C101.558 75.9024 96.2425 72.3503 85.7419 69.7187ZM12.1988 125.216C5.8596 123.077 4.07061 120.925 4.07061 119.914V86.3252C6.05405 87.6345 8.76347 88.8272 12.1988 89.8902V125.216ZM97.5 119.914C97.5 120.925 95.711 123.077 89.3718 125.216V89.8902C92.7942 88.8272 95.5036 87.6345 97.5 86.3252V119.914ZM86.792 86.416C85.9234 86.6623 85.3141 87.466 85.3141 88.3735V121.405C76.084 119.149 63.6907 117.879 50.7918 117.879C37.8929 117.879 25.4996 119.149 16.2694 121.405V88.3735C16.2694 87.466 15.6602 86.6623 14.7916 86.416C6.33926 84.0177 4.08357 81.4508 4.08357 80.31C4.08357 79.0266 6.76706 76.1746 16.8269 73.6597C25.8756 71.404 37.9448 70.1465 50.8048 70.1465C63.6647 70.1465 75.7339 71.391 84.7826 73.6597C94.8424 76.1746 97.5259 79.0137 97.5259 80.31C97.5 81.4508 95.2443 84.0177 86.792 86.416Z" fill="#F96D32"/>
<path d="M31.5659 35.3649C27.962 35.3649 25.0322 38.2947 25.0322 41.8986C25.0322 45.4895 27.962 48.4193 31.5659 48.4193C35.1569 48.4193 38.0867 45.5025 38.0867 41.8986C38.0867 38.2947 35.1569 35.3649 31.5659 35.3649ZM31.5659 45.8655C29.3621 45.8655 27.5861 44.0765 27.5861 41.8986C27.5861 39.6947 29.3751 37.9187 31.5659 37.9187C33.7568 37.9187 35.5458 39.7077 35.5458 41.8986C35.5328 44.0894 33.7568 45.8655 31.5659 45.8655Z" fill="#F96D32"/>
<path d="M55.7694 8.56909C52.0099 8.56909 48.9375 11.6285 48.9375 15.401C48.9375 19.1604 51.9969 22.2199 55.7694 22.2199C59.5418 22.2199 62.6012 19.1604 62.6012 15.401C62.6012 11.6285 59.5418 8.56909 55.7694 8.56909ZM55.7694 19.666C53.41 19.666 51.4784 17.7474 51.4784 15.388C51.4784 13.0286 53.397 11.097 55.7694 11.097C58.1417 11.097 60.0604 13.0156 60.0604 15.388C60.0604 17.7474 58.1288 19.666 55.7694 19.666Z" fill="#F96D32"/>
<path d="M91.6007 42.8061H88.0486V37.8929C88.0486 33.8871 84.8466 30.4258 80.5815 30.4258C80.4519 30.4258 80.3223 30.4388 80.1926 30.4517L68.979 15.2842C69.0698 14.649 69.1346 14.0138 69.1346 13.3656C69.1346 6.00219 63.1454 0 55.769 0C48.4056 0 42.4034 5.98923 42.4034 13.3656C42.4034 14.0138 42.4683 14.636 42.559 15.2583L29.6601 27.1849C23.4764 28.1053 18.7188 33.4334 18.7188 39.8634C18.7188 44.0636 20.754 47.7712 23.8783 50.1177V66.2704C24.7339 66.2186 25.5766 66.1019 26.4192 65.9464V51.6215C28.0008 52.3085 29.7249 52.6974 31.5528 52.6974C33.3807 52.6974 35.1178 52.3085 36.6864 51.6215C36.6864 51.6215 36.6864 59.633 36.6864 64.5074C37.5291 64.4426 38.3847 64.4037 39.2273 64.3777V50.1306C42.3516 47.7842 44.3869 44.0636 44.3869 39.8763C44.3869 38.2559 44.0758 36.7132 43.5183 35.2872L53.0596 26.4719C53.9282 26.6534 54.8356 26.7441 55.756 26.7441C57.2598 26.7441 58.6988 26.4848 60.06 26.0182L73.1144 38.1133V42.8191H70.6384C69.9383 42.8191 69.3679 43.3895 69.3679 44.0895V59.3997C69.3679 59.8534 69.6013 60.2682 70.0032 60.5016C70.3921 60.7349 70.8717 60.7349 71.2736 60.5146L75.5516 58.1033C75.9535 57.8829 76.1998 57.4551 76.1998 57.0014V50.5325H86.0522V57.0014C86.0522 57.4551 86.2985 57.8829 86.7004 58.1033L90.9784 60.5146C91.1729 60.6183 91.3933 60.6831 91.6007 60.6831C91.8211 60.6831 92.0414 60.6183 92.2489 60.5146C92.6378 60.2812 92.8841 59.8664 92.8841 59.4126V44.0766C92.8841 43.3765 92.3137 42.8061 91.6007 42.8061ZM80.5815 32.9797C83.4206 32.9797 85.5077 35.2872 85.5077 37.8929V42.8061H75.6683V37.8929C75.6683 35.1835 77.8721 32.9797 80.5815 32.9797ZM31.5658 50.1566C25.8877 50.1566 21.2726 45.5415 21.2726 39.8634C21.2726 34.1853 25.8877 29.5702 31.5658 29.5702C37.2439 29.5702 41.859 34.1853 41.859 39.8634C41.859 45.5415 37.2309 50.1566 31.5658 50.1566ZM42.3386 32.9148C40.3681 29.8684 37.1531 27.7164 33.4066 27.1719L43.272 18.0584C44.5295 21.3901 47.0704 24.0866 50.3113 25.5515L42.3386 32.9148ZM55.769 24.1903C49.8057 24.1903 44.9443 19.3418 44.9443 13.3656C44.9443 7.40227 49.7927 2.54088 55.769 2.54088C61.7453 2.54088 66.5937 7.38931 66.5937 13.3656C66.5937 19.3289 61.7323 24.1903 55.769 24.1903ZM62.562 24.8514C65.051 23.3736 67.0215 21.1179 68.1234 18.4214L77.5091 31.0999C75.759 31.8907 74.3719 33.3426 73.6589 35.1316L62.562 24.8514ZM90.3302 57.2088L88.5931 56.2236V49.2361C88.5931 48.5361 88.0227 47.9657 87.3227 47.9657H74.9294C74.2293 47.9657 73.6589 48.5361 73.6589 49.2361V56.2236L71.9218 57.2088V45.347H90.3302V57.2088Z" fill="#F96D32"/>
<path d="M85.7419 69.7187C76.3821 67.3723 63.9629 66.0889 50.7788 66.0889C37.5947 66.0889 25.1885 67.3723 15.8157 69.7187C5.32808 72.3374 0 75.9024 0 80.31V119.914C0 123.998 4.60212 127.355 13.6637 129.922C14.273 130.091 14.9342 129.974 15.4398 129.585C15.9454 129.196 16.2435 128.6 16.2435 127.965V125.592C25.2403 123.272 37.7114 121.937 50.7659 121.937C63.8333 121.937 76.2914 123.259 85.2882 125.592V127.965C85.2882 128.6 85.5864 129.196 86.0919 129.585C86.4549 129.857 86.8827 130 87.3105 130C87.492 130 87.6865 129.974 87.868 129.922C96.9296 127.355 101.532 123.985 101.532 119.914V80.31C101.558 75.9024 96.2425 72.3503 85.7419 69.7187ZM12.1988 125.216C5.8596 123.077 4.07061 120.925 4.07061 119.914V86.3252C6.05405 87.6345 8.76347 88.8272 12.1988 89.8902V125.216ZM97.5 119.914C97.5 120.925 95.711 123.077 89.3718 125.216V89.8902C92.7942 88.8272 95.5036 87.6345 97.5 86.3252V119.914ZM86.792 86.416C85.9234 86.6623 85.3141 87.466 85.3141 88.3735V121.405C76.084 119.149 63.6907 117.879 50.7918 117.879C37.8929 117.879 25.4996 119.149 16.2694 121.405V88.3735C16.2694 87.466 15.6602 86.6623 14.7916 86.416C6.33926 84.0177 4.08357 81.4508 4.08357 80.31C4.08357 79.0266 6.76706 76.1746 16.8269 73.6597C25.8756 71.404 37.9448 70.1465 50.8048 70.1465C63.6647 70.1465 75.7339 71.391 84.7826 73.6597C94.8424 76.1746 97.5259 79.0137 97.5259 80.31C97.5 81.4508 95.2443 84.0177 86.792 86.416Z" fill="#F96D32"/>
<path d="M64.8453 111.54C64.8453 113.057 63.6138 114.301 62.084 114.301H39.229C37.7123 114.301 36.4678 113.07 36.4678 111.54C36.4678 110.023 37.6993 108.779 39.229 108.779H62.084C63.6008 108.779 64.8453 110.01 64.8453 111.54Z" fill="#F96D32"/>
<path d="M47.9792 99.9633V107.456H41.3418V99.9633C42.3659 100.495 43.4938 100.754 44.6605 100.754C45.8272 100.767 46.9551 100.495 47.9792 99.9633Z" fill="#F96D32"/>
<path d="M54.5136 86.8048L51.0912 89.968C49.9633 87.8938 47.8632 86.4289 45.4131 86.1826L49.9633 81.9694C50.6634 84.225 52.3746 85.9881 54.5136 86.8048Z" fill="#F96D32"/>
<path d="M68.6955 88.1271C67.2566 88.5808 66.1158 89.7346 65.7009 91.1995L60.6191 86.4937C62.3433 85.6251 63.6915 84.1213 64.3397 82.2545L68.6955 88.1271Z" fill="#F96D32"/>
<path d="M46.7211 93.4552C46.7211 94.583 45.8007 95.5034 44.6599 95.5034C43.532 95.5034 42.5986 94.583 42.5986 93.4552C42.5986 92.3143 43.532 91.3939 44.6599 91.3939C45.8007 91.3939 46.7211 92.3273 46.7211 93.4552Z" fill="#F96D32"/>
<path d="M43.9731 87.5047C40.9784 87.8418 38.6709 90.3697 38.6709 93.455C38.6709 96.7608 41.3414 99.4443 44.6601 99.4443C47.9788 99.4443 50.6494 96.7608 50.6494 93.455C50.6494 89.89 47.5251 87.0899 43.9731 87.5047ZM44.6601 96.8256C42.7933 96.8256 41.2766 95.3088 41.2766 93.455C41.2766 91.5883 42.7933 90.0715 44.6601 90.0715C46.5269 90.0715 48.0436 91.5883 48.0436 93.455C48.0436 95.3218 46.5269 96.8256 44.6601 96.8256Z" fill="#F96D32"/>
<path d="M59.426 79.7268C59.426 80.9454 58.4278 81.9436 57.2093 81.9436C55.9907 81.9436 54.9795 80.9584 54.9795 79.7268C54.9795 78.5082 55.9777 77.51 57.2093 77.51C58.4278 77.51 59.426 78.5082 59.426 79.7268Z" fill="#F96D32"/>
<path d="M57.2097 73.4652C53.7484 73.4652 50.9482 76.2654 50.9482 79.7267C50.9482 80.1545 50.9871 80.5693 51.0649 80.9582C51.6612 83.888 54.2281 85.9881 57.2097 85.9881C60.2432 85.9881 62.7971 83.8232 63.3545 80.9064C63.4323 80.5304 63.4712 80.1285 63.4712 79.7267C63.4712 76.2654 60.671 73.4652 57.2097 73.4652ZM57.2097 83.2658C55.2522 83.2658 53.6706 81.6842 53.6706 79.7396C53.6706 77.7951 55.2522 76.2005 57.2097 76.2005C59.1543 76.2005 60.7488 77.7821 60.7488 79.7396C60.7488 81.6842 59.1543 83.2658 57.2097 83.2658Z" fill="#F96D32"/>
<path d="M73.2705 92.4442V94.3239H66.8535V92.4442C66.8535 92.3794 66.8535 92.3275 66.8665 92.2757C66.9572 90.5385 68.3832 89.2422 70.0685 89.2422C71.8575 89.2292 73.2705 90.6941 73.2705 92.4442Z" fill="#F96D32"/>
<path d="M75.7613 96.2943V102.439C75.7613 102.945 75.2168 103.256 74.7761 103.01L73.8686 102.504C73.6612 102.387 73.5316 102.167 73.5316 101.934V98.3167H67.1145V101.934C67.1145 102.167 66.9849 102.387 66.7775 102.504L65.87 103.01C65.4292 103.256 64.8848 102.945 64.8848 102.439V96.2943C64.8848 95.9313 65.1829 95.6332 65.5459 95.6332H75.0872C75.4761 95.6461 75.7613 95.9313 75.7613 96.2943Z" fill="#F96D32"/>
</svg>
