<svg width="112" height="130" viewBox="0 0 112 130" fill="none" xmlns="http://www.w3.org/2000/svg">
<path fill-rule="evenodd" clip-rule="evenodd" d="M57.2822 30.5021L80.9925 16.8168V44.1976L57.2822 57.8828V30.5021Z" fill="#F96D32"/>
<path fill-rule="evenodd" clip-rule="evenodd" d="M53.662 57.8828L29.9619 44.1976V16.8168L53.662 30.5021V57.8828Z" fill="#F96D32"/>
<path fill-rule="evenodd" clip-rule="evenodd" d="M55.473 0L31.7627 13.6853L55.473 27.3706L79.1731 13.6853L55.473 0Z" fill="#F96D32"/>
<path d="M109.889 25.5303H103.117V21.504C103.117 20.8635 102.68 20.3246 102.06 20.1721C96.3561 18.8809 90.4794 18.4538 84.5925 18.8809V21.6159C89.9202 21.2194 95.2377 21.5244 100.403 22.592V110.824C86.0973 108.018 70.8361 110.611 56.9779 118.196V60.9128H54.2632V118.186C44.045 112.594 33.0643 109.706 22.2665 109.706C18.4233 109.706 14.6003 110.072 10.8384 110.804V22.6021C15.8408 21.5752 20.9651 21.2499 26.12 21.5854V18.8504C20.4059 18.4843 14.7122 18.9114 9.1913 20.162C8.57109 20.2941 8.1339 20.8533 8.1339 21.4939V25.5202H1.35226C0.610041 25.5202 0 26.1302 0 26.8724V120.504C0 121.246 0.610041 121.856 1.35226 121.856H44.106C44.7161 123.564 45.6922 125.13 46.9834 126.431C49.3016 128.739 52.3721 130 55.6155 130C60.8212 130 65.427 126.706 67.1351 121.856H109.889C110.631 121.856 111.241 121.246 111.241 120.504V26.8928C111.241 26.1404 110.631 25.5303 109.889 25.5303ZM108.537 119.162H66.1286C65.5084 119.162 64.9797 119.578 64.817 120.178C63.7291 124.367 59.9468 127.306 55.6155 127.306C53.094 127.306 50.7047 126.319 48.8949 124.54C47.7053 123.33 46.8309 121.825 46.414 120.189C46.2514 119.589 45.7227 119.172 45.1024 119.172H2.69435V28.245H8.12372V112.482C8.12372 112.888 8.31691 113.285 8.64226 113.539C8.96762 113.793 9.38448 113.895 9.79117 113.793C24.5949 110.428 40.6186 113.224 54.9343 121.663C55.0055 121.703 55.0665 121.734 55.1478 121.744C55.1885 121.744 55.219 121.785 55.2597 121.785C55.3715 121.815 55.4935 121.825 55.6155 121.825C55.7375 121.825 55.8494 121.815 55.9714 121.785C56.012 121.785 56.0425 121.754 56.0832 121.744C56.1544 121.714 56.2357 121.693 56.2967 121.663C70.6124 113.224 86.6565 110.428 101.44 113.793C101.847 113.885 102.263 113.793 102.589 113.539C102.914 113.285 103.107 112.888 103.107 112.482V28.245H108.537V119.162Z" fill="#F96D32"/>
</svg>
