<svg width="50" height="50" viewBox="0 0 50 50" fill="none" xmlns="http://www.w3.org/2000/svg">
<path d="M49.3447 24.6724C49.3447 11.0386 38.3061 0 24.6724 0C11.0386 0 0 11.0386 0 24.6724C0 36.9903 9.02826 47.1882 20.8344 49.0523V31.8365H14.5476V24.7089H20.7979V19.2627C20.7979 13.0855 24.4896 9.64964 30.1186 9.64964C32.8234 9.64964 35.6379 10.1248 35.6379 10.1248V16.1924H32.531C29.4606 16.1924 28.5103 18.0931 28.5103 20.0303V24.6724H35.3455L34.2489 31.7999H28.5103V49.0523C40.3165 47.2247 49.3447 36.9903 49.3447 24.6724Z" fill="#191818"/>
<path d="M34.2492 31.8366L35.3457 24.709H28.5106V20.0669C28.5106 18.1297 29.4609 16.229 32.5313 16.229H35.6382V10.1615C35.6382 10.1615 32.8237 9.68628 30.1189 9.68628C24.4899 9.68628 20.7982 13.0856 20.7982 19.2994V24.7456H14.5479V31.8366H20.7982V49.089C22.0409 49.2717 23.3568 49.3814 24.6361 49.3814C25.9154 49.3814 27.2313 49.2717 28.474 49.089V31.8366H34.2492Z" fill="#F96D32"/>
</svg>
