<svg width="197" height="145" viewBox="0 0 197 145" fill="none" xmlns="http://www.w3.org/2000/svg">
<path d="M196.86 0H118.153L92.7534 144.789H171.46L196.86 0Z" fill="white"/>
<path d="M124.436 17.1245H121.372C121.341 17.1245 121.315 17.0937 121.32 17.0629L121.852 14.0291C121.858 13.9983 121.895 13.9675 121.926 13.9675H124.99C125.022 13.9675 125.047 13.9983 125.042 14.0291L124.513 17.0475C124.504 17.0937 124.468 17.1245 124.436 17.1245Z" fill="#191818"/>
<path d="M118.241 19.8196L118.724 17.063C118.743 16.9552 118.666 16.8628 118.556 16.8628H104C103.891 16.8628 103.781 16.9552 103.762 17.063L103.278 19.8196C103.259 19.9274 103.337 20.0198 103.446 20.0198H107.324C107.433 20.0198 107.511 20.1122 107.492 20.22L107.008 22.9765C106.989 23.0843 107.067 23.1767 107.176 23.1767H121.733C121.842 23.1767 121.952 23.0843 121.971 22.9765L122.455 20.22C122.473 20.1122 122.396 20.0198 122.286 20.0198H118.409C118.3 20.0198 118.222 19.9274 118.241 19.8196Z" fill="#191818"/>
<path d="M119.785 29.2905L120.268 26.5339C120.287 26.4261 120.397 26.3337 120.507 26.3337H135.063C135.172 26.3337 135.25 26.4261 135.231 26.5339L134.747 29.2905C134.729 29.3983 134.619 29.4907 134.509 29.4907H130.632C130.522 29.4907 130.412 29.5831 130.393 29.6909L129.91 32.4475C129.891 32.5553 129.781 32.6477 129.671 32.6477H115.115C115.006 32.6477 114.928 32.5553 114.947 32.4475L115.431 29.6909C115.45 29.5831 115.56 29.4907 115.669 29.4907H119.546C119.672 29.4907 119.766 29.3983 119.785 29.2905Z" fill="#191818"/>
<path d="M147.299 113.266C117.92 113.266 105.99 97.4963 111.52 65.9729C114.14 51.0351 119.878 39.4544 128.728 31.2463C137.579 23.0382 148.758 18.9419 162.266 18.9419C168.52 18.9419 173.851 19.9275 178.271 21.9141C182.691 23.9006 185.762 26.7188 187.48 30.384L175.787 41.6874C174.279 39.054 172.132 37.0367 169.347 35.6199C166.562 34.2031 163.388 33.4947 159.854 33.4947C151.99 33.4947 145.171 36.2667 139.448 41.7952C133.71 47.3237 129.956 55.1776 128.173 65.3415C124.266 87.6096 132.241 98.7437 152.097 98.7437C158.43 98.7437 164.911 97.4501 171.54 94.8629L172.099 108.877C163.956 111.803 155.695 113.266 147.299 113.266Z" fill="#191818"/>
<path d="M98.9532 93.3227H104.015C104.043 93.3227 104.075 93.261 104.088 93.1838L105.147 87.1477C105.161 87.0705 105.15 87.0088 105.123 87.0088H100.061C100.034 87.0088 100.001 87.0705 99.9878 87.1477L98.9289 93.1838C98.9154 93.261 98.9262 93.3227 98.9532 93.3227Z" fill="#191818"/>
<path d="M68.7288 98.9438C62.553 98.9438 57.52 97.8659 53.6455 95.7099C53.1884 95.4635 53.5057 94.7243 54.0686 94.7243C54.5845 94.7243 54.9169 94.0775 54.5461 93.7849C50.3329 90.3507 47.9913 85.161 47.5028 78.2311C47.4807 78.0001 47.3072 77.8307 47.057 77.8307H44.2897C44.0395 77.8307 43.8503 77.6613 43.8466 77.4149C43.6862 73.8729 43.9951 69.8844 44.7704 65.4647C45.4323 61.6917 46.3658 58.2422 47.5736 55.1006C47.6637 54.8542 47.9123 54.6848 48.1625 54.6848H50.8673C51.1175 54.6848 51.3661 54.5154 51.4562 54.269C53.4756 49.2641 56.2246 45.0907 59.6693 41.7644C60.8542 40.6248 62.0828 39.593 63.3496 38.6998C63.7788 38.3918 63.668 37.7758 63.1677 37.7758H63.0739C62.5266 37.7758 62.4633 37.0674 62.9783 36.8056C67.0803 34.6342 71.5847 33.5563 76.5097 33.5563C80.0588 33.5563 83.2335 34.2646 86.0311 35.6968C88.6443 37.0212 90.694 38.8846 92.1827 41.2716C92.34 41.5334 92.7465 41.5334 92.993 41.287L103.894 30.7535C104.08 30.5841 104.141 30.3223 104.051 30.1221C102.306 26.6109 99.2822 23.8852 94.9763 21.9602C90.5405 19.9736 85.1943 18.988 78.9246 18.988C65.3848 18.988 54.1724 23.0998 45.3031 31.3233C43.416 33.0789 41.6766 34.973 40.0638 37.0366C39.7828 37.3908 39.9702 37.8374 40.3767 37.8374H42.0966C42.5031 37.8374 42.6803 38.2532 42.4305 38.6074C39.1816 43.1349 36.5772 48.3555 34.6044 54.2536C34.5116 54.5154 34.2603 54.7002 33.9945 54.7002H31.3209C31.0551 54.7002 30.8038 54.885 30.711 55.1468C29.6082 58.5809 28.7151 62.2461 28.0343 66.1268C27.3319 70.1308 26.9072 73.8884 26.7787 77.3841C26.764 77.6459 26.9661 77.8307 27.2319 77.8307H29.9211C30.1869 77.8307 30.3734 78.0155 30.3744 78.2773C30.2303 84.2678 30.9222 89.5038 32.471 93.9543C32.5965 94.3085 32.2605 94.7089 31.8696 94.7089H29.9934C29.5869 94.7089 29.2455 95.1401 29.3866 95.4943C34.2369 107.506 45.7538 113.512 63.906 113.512C72.1613 113.512 80.2899 112.095 88.289 109.277C88.5554 109.185 88.7421 108.923 88.7227 108.677L88.2382 95.6637C88.2323 95.3403 87.9025 95.1709 87.5838 95.2941C81.1688 97.7273 74.889 98.9438 68.7288 98.9438Z" fill="url(#paint0_linear_211_2501)"/>
<path d="M19.3976 50.7424C17.7806 53.8994 16.4677 57.195 15.4927 60.6137C15.4155 60.8755 15.5782 61.1065 15.8569 61.1219L20.1791 61.2605C20.411 61.2759 20.6466 61.0911 20.7184 60.8601C21.7037 57.4721 23.0765 54.192 24.7738 51.112C24.8423 50.9888 24.851 50.8502 24.8073 50.7424H19.3976Z" fill="url(#paint1_linear_211_2501)"/>
<path d="M26.4506 94.4932C21.0202 87.7481 18.2665 78.847 19.1614 69.0219C19.1836 68.8064 19.0413 68.637 18.8224 68.637L14.4404 68.483C14.1929 68.4676 13.9362 68.6832 13.9059 68.9449C12.9318 78.5082 15.0112 87.3323 19.4617 94.4932H26.4506Z" fill="url(#paint2_linear_211_2501)"/>
<path d="M98.8843 19.5574H94.8348C94.7723 19.5574 94.7335 19.5112 94.7443 19.4496L95.444 15.4611C95.4548 15.3995 95.5098 15.3533 95.5723 15.3533H99.6218C99.6843 15.3533 99.7231 15.3995 99.7123 15.4611L99.0126 19.4496C99.0018 19.5112 98.9468 19.5574 98.8843 19.5574Z" fill="#343333"/>
<path d="M39.653 18.4336L40.1365 15.677C40.1554 15.5692 40.0778 15.4768 39.9684 15.4768H25.4122C25.3028 15.4768 25.1928 15.5692 25.1739 15.677L24.6903 18.4336C24.6714 18.5414 24.749 18.6338 24.8584 18.6338H28.7359C28.8453 18.6338 28.9229 18.7262 28.904 18.834L28.4205 21.5905C28.4015 21.6983 28.4791 21.7907 28.5886 21.7907H43.1447C43.2542 21.7907 43.3642 21.6983 43.3831 21.5905L43.8667 18.834C43.8856 18.7262 43.808 18.6338 43.6986 18.6338H39.8211C39.7144 18.6184 39.634 18.5414 39.653 18.4336Z" fill="url(#paint3_linear_211_2501)"/>
<path d="M38.2736 28.613H35.3342C35.256 28.613 35.2199 28.5514 35.2308 28.4898L35.7386 25.5946C35.7521 25.5176 35.8228 25.4714 35.8853 25.4714H38.8247C38.9029 25.4714 38.939 25.533 38.9282 25.5946L38.4203 28.4898C38.4095 28.5514 38.3361 28.613 38.2736 28.613Z" fill="#F96E31"/>
<path d="M87.0767 94.6164H84.0741C84.0157 94.6164 83.9887 94.5704 83.9968 94.5244L84.5156 91.5669C84.5257 91.5094 84.5785 91.4749 84.6252 91.4749H87.6278C87.6862 91.4749 87.7132 91.5209 87.7051 91.5669L87.1863 94.5244C87.1879 94.5819 87.1351 94.6164 87.0767 94.6164Z" fill="#B13B37"/>
<path d="M99.0046 90.1657H93.2822C93.2353 90.1657 93.2094 90.135 93.2175 90.0888L93.7443 87.0858C93.7524 87.0396 93.7891 87.0088 93.836 87.0088H99.5584C99.6053 87.0088 99.6312 87.0396 99.6231 87.0858L99.0962 90.0888C99.0908 90.1196 99.0515 90.1657 99.0046 90.1657Z" fill="url(#paint4_linear_211_2501)"/>
<path d="M107.653 35.7893H104.588C104.557 35.7893 104.531 35.7585 104.536 35.7277L105.066 32.7093C105.071 32.6785 105.108 32.6477 105.139 32.6477H108.204C108.235 32.6477 108.261 32.6785 108.255 32.7093L107.726 35.7277C107.72 35.7585 107.684 35.7893 107.653 35.7893Z" fill="url(#paint5_linear_211_2501)"/>
<path d="M109.376 23.0227H103.654C103.607 23.0227 103.581 22.9919 103.589 22.9457L104.116 19.9427C104.124 19.8965 104.161 19.8657 104.208 19.8657H109.93C109.977 19.8657 110.003 19.8965 109.995 19.9427L109.468 22.9457C109.462 22.9765 109.423 23.0227 109.376 23.0227Z" fill="url(#paint6_linear_211_2501)"/>
<defs>
<linearGradient id="paint0_linear_211_2501" x1="94.5194" y1="68.1295" x2="28.944" y2="55.8626" gradientUnits="userSpaceOnUse">
<stop stop-color="#A53738"/>
<stop offset="0.263542" stop-color="#CA4335"/>
<stop offset="0.55" stop-color="#DF4E31"/>
<stop offset="0.794792" stop-color="#EC5832"/>
<stop offset="1" stop-color="#FA7031"/>
</linearGradient>
<linearGradient id="paint1_linear_211_2501" x1="27.0501" y1="61.2012" x2="10.3785" y2="58.2765" gradientUnits="userSpaceOnUse">
<stop stop-color="#F96E31"/>
<stop offset="1" stop-color="#F96E31" stop-opacity="0"/>
</linearGradient>
<linearGradient id="paint2_linear_211_2501" x1="29.1972" y1="78.8503" x2="-0.0158683" y2="73.5222" gradientUnits="userSpaceOnUse">
<stop stop-color="#F96E31"/>
<stop offset="1" stop-color="#F96E31" stop-opacity="0"/>
</linearGradient>
<linearGradient id="paint3_linear_211_2501" x1="41.16" y1="21.7753" x2="23.3988" y2="18.6595" gradientUnits="userSpaceOnUse">
<stop stop-color="#F96E31"/>
<stop offset="1" stop-color="#F96E31" stop-opacity="0"/>
</linearGradient>
<linearGradient id="paint4_linear_211_2501" x1="95.4826" y1="86.6238" x2="103.985" y2="88.2685" gradientUnits="userSpaceOnUse">
<stop stop-color="#B13B37"/>
<stop offset="1" stop-color="white" stop-opacity="0"/>
</linearGradient>
<linearGradient id="paint5_linear_211_2501" x1="104.521" y1="35.7277" x2="107.554" y2="36.2598" gradientUnits="userSpaceOnUse">
<stop stop-color="#AA3938"/>
<stop offset="1" stop-color="#AA3938" stop-opacity="0"/>
</linearGradient>
<linearGradient id="paint6_linear_211_2501" x1="105.854" y1="19.4807" x2="110.784" y2="20.3455" gradientUnits="userSpaceOnUse">
<stop stop-color="#343333"/>
<stop offset="1" stop-color="white" stop-opacity="0"/>
</linearGradient>
</defs>
</svg>
