<svg width="47" height="41" viewBox="0 0 47 41" fill="none" xmlns="http://www.w3.org/2000/svg">
<path d="M46.9927 0H25.3457V40.43H46.9927V0Z" fill="white"/>
<path d="M27.9001 4.78192H27.0572C27.0486 4.78192 27.04 4.77332 27.04 4.76472V3.91759C27.04 3.90899 27.0486 3.90039 27.0572 3.90039H27.9001C27.9087 3.90039 27.9173 3.90899 27.9173 3.91759V4.76042C27.9173 4.77332 27.9087 4.78192 27.9001 4.78192Z" fill="#F96D32"/>
<path d="M26.3262 5.53437V4.76464C26.3262 4.73454 26.3004 4.70874 26.2703 4.70874H22.2668C22.2367 4.70874 22.2109 4.73454 22.2109 4.76464V5.53437C22.2109 5.56447 22.2367 5.59027 22.2668 5.59027H23.3333C23.3634 5.59027 23.3892 5.61607 23.3892 5.64617V6.4159C23.3892 6.446 23.415 6.4718 23.4451 6.4718H27.4485C27.4786 6.4718 27.5044 6.446 27.5044 6.4159V5.64617C27.5044 5.61607 27.4786 5.59027 27.4485 5.59027H26.3821C26.352 5.59027 26.3262 5.56447 26.3262 5.53437Z" fill="#F96D32"/>
<path d="M24.6792 10.3849V9.61083C24.6792 9.58073 24.705 9.55493 24.7351 9.55493H28.2311C28.4762 9.55493 28.3816 9.74844 28.3816 9.99355C28.3816 10.2344 28.1795 10.4322 27.943 10.4322H27.5904C27.5603 10.4322 27.5388 10.458 27.5388 10.4838V11.2578C27.5388 11.2879 27.513 11.3094 27.4872 11.3094H23.5955C23.5654 11.3094 23.5439 11.2836 23.5439 11.2578V10.4838C23.5439 10.4537 23.5697 10.4322 23.5955 10.4322H24.6319C24.6577 10.4365 24.6792 10.4107 24.6792 10.3849Z" fill="url(#paint0_linear_288_80)"/>
<path d="M27.2075 8.1789V7.40917C27.2075 7.37907 27.2333 7.35327 27.2634 7.35327H31.2669C31.297 7.35327 31.3228 7.37907 31.3228 7.40917V8.1789C31.3228 8.209 31.297 8.2348 31.2669 8.2348H30.2004C30.1703 8.2348 30.1445 8.2606 30.1445 8.2907V9.06043C30.1445 9.09053 30.1187 9.11633 30.0886 9.11633H26.0852C26.0551 9.11633 26.0293 9.09053 26.0293 9.06043V8.2907C26.0293 8.2606 26.0551 8.2348 26.0852 8.2348H27.1516C27.186 8.2348 27.2075 8.209 27.2075 8.1789Z" fill="#F96D32"/>
<path d="M38.8262 31.6277C30.7462 31.6277 26.7041 27.2244 26.7041 18.422C26.7041 14.2508 27.7232 11.0171 29.7615 8.72513C31.7998 6.43315 34.6766 5.28931 38.3919 5.28931C40.112 5.28931 41.6256 5.56452 42.9372 6.11924C44.2487 6.67396 45.2291 7.46088 45.8785 8.48432L43.2081 11.6406C42.6663 10.9053 41.9782 10.342 41.144 9.94637C40.3098 9.55076 39.4024 9.35295 38.4306 9.35295C36.2676 9.35295 34.5261 10.127 33.2188 11.6707C31.9073 13.2145 31.2537 15.4076 31.2537 18.2457C31.2537 24.4637 33.9843 27.5727 39.4454 27.5727C41.187 27.5727 42.9071 27.2115 44.6056 26.489L45.4356 30.4022C43.3371 31.2192 41.1354 31.6277 38.8262 31.6277Z" fill="#F96D32"/>
<path d="M24.5681 26.0587H25.9604C25.9678 26.0587 25.9737 26.0415 25.9737 26.0199V24.3345C25.9737 24.3129 25.9678 24.2957 25.9604 24.2957H24.5681C24.5606 24.2957 24.5547 24.3129 24.5547 24.3345V26.0199C24.5547 26.0415 24.5606 26.0587 24.5681 26.0587Z" fill="#F96D32"/>
<path d="M16.5248 27.6284C14.8262 27.6284 13.39 27.3274 12.2203 26.7253C12.0827 26.6565 12.1343 26.4501 12.2891 26.4501C12.431 26.4501 12.4912 26.2695 12.3751 26.1878C11.0507 25.2289 10.1562 23.7797 9.68753 21.8447C9.67033 21.7802 9.61443 21.7329 9.54562 21.7329H8.7845C8.7157 21.7329 8.65549 21.6856 8.64259 21.6168C8.42758 20.6277 8.32008 19.514 8.32008 18.2799C8.32008 17.2263 8.41039 16.2631 8.59099 15.3859C8.60389 15.3171 8.66409 15.2697 8.7329 15.2697H9.47682C9.54562 15.2697 9.60583 15.2224 9.61873 15.1536C9.93264 13.7561 10.4874 12.5908 11.2743 11.6619C11.5452 11.3437 11.8333 11.0556 12.1386 10.8062C12.2418 10.7202 12.1816 10.5482 12.044 10.5482H12.0182C11.8677 10.5482 11.8161 10.3504 11.9451 10.2773C12.9685 9.67095 14.1554 9.36994 15.5099 9.36994C16.4861 9.36994 17.3934 9.56775 18.2319 9.96766C19.0146 10.3375 19.6682 10.8578 20.1928 11.5243C20.2487 11.5974 20.3605 11.5974 20.4164 11.5286L22.9062 8.58732C22.9492 8.54001 22.9535 8.46691 22.9191 8.41101C22.2698 7.43058 21.3065 6.66945 20.0294 6.13193C18.7135 5.57721 17.1956 5.302 15.4712 5.302C11.7473 5.302 8.8619 6.45014 6.81933 8.74642C6.38502 9.23664 5.998 9.76556 5.65399 10.3418C5.59379 10.4407 5.66689 10.5654 5.77869 10.5654H6.25171C6.36351 10.5654 6.43232 10.6815 6.38072 10.7804C5.70559 12.0446 5.24118 13.5024 4.98317 15.1493C4.97027 15.2224 4.91006 15.274 4.83696 15.274H4.10164C4.02853 15.274 3.96833 15.3257 3.95543 15.3988C3.81783 16.3577 3.74902 17.3811 3.74902 18.4648C3.74902 19.5828 3.81353 20.632 3.94683 21.6082C3.95543 21.6813 4.01993 21.7329 4.09304 21.7329H4.83266C4.90576 21.7329 4.96597 21.7845 4.97887 21.8576C5.22828 23.5303 5.67119 24.9924 6.31191 26.2351C6.36352 26.334 6.29041 26.4458 6.18291 26.4458H5.66689C5.55509 26.4458 5.48198 26.5662 5.53789 26.6651C7.45145 30.0193 10.9088 31.6963 15.9012 31.6963C18.1717 31.6963 20.339 31.3007 22.4031 30.5138C22.4719 30.488 22.5106 30.4149 22.4934 30.3461L21.7322 26.7124C21.715 26.6221 21.6161 26.5748 21.5344 26.6092C19.8875 27.2887 18.219 27.6284 16.5248 27.6284Z" fill="white"/>
<path d="M0.631797 14.1687C0.339387 15.0502 0.13728 15.9705 0.0340763 16.9251C0.025476 16.9982 0.0813777 17.0627 0.15878 17.067L1.35422 17.1057C1.41872 17.11 1.47463 17.0584 1.48323 16.9939C1.59073 16.0479 1.81004 15.1319 2.12825 14.2719C2.14115 14.2375 2.13685 14.1988 2.11965 14.1687H0.631797Z" fill="white"/>
<path d="M4.68308 26.386C2.86412 24.5025 1.67727 22.017 1.44937 19.2735C1.44507 19.2133 1.39777 19.166 1.33756 19.166L0.124921 19.123C0.0561188 19.1187 -0.00408302 19.1789 0.000217125 19.252C0.193724 21.9224 1.19136 24.3864 2.76091 26.386H4.68308Z" fill="white"/>
<path d="M20.9905 5.46129H19.8768C19.8596 5.46129 19.8467 5.44839 19.8467 5.43119V4.31745C19.8467 4.30025 19.8596 4.28735 19.8768 4.28735H20.9905C21.0077 4.28735 21.0206 4.30025 21.0206 4.31745V5.43119C21.0206 5.44839 21.0077 5.46129 20.9905 5.46129Z" fill="white"/>
<path d="M4.64454 5.14741V4.37768C4.64454 4.34758 4.61874 4.32178 4.58864 4.32178H0.5852C0.555099 4.32178 0.529297 4.34758 0.529297 4.37768V5.14741C0.529297 5.17751 0.555099 5.20331 0.5852 5.20331H1.65164C1.68174 5.20331 1.70754 5.22911 1.70754 5.25921V6.02894C1.70754 6.05904 1.73334 6.08484 1.76344 6.08484H5.76688C5.79698 6.08484 5.82278 6.05904 5.82278 6.02894V5.25921C5.82278 5.22911 5.79698 5.20331 5.76688 5.20331H4.70044C4.67034 5.19901 4.64454 5.17751 4.64454 5.14741Z" fill="white"/>
<path d="M4.75787 7.98978H3.94944C3.92794 7.98978 3.91504 7.97258 3.91504 7.95538V7.14695C3.91504 7.12545 3.93224 7.11255 3.94944 7.11255H4.75787C4.77937 7.11255 4.79227 7.12975 4.79227 7.14695V7.95538C4.79227 7.97258 4.77507 7.98978 4.75787 7.98978Z" fill="white"/>
<path d="M21.3632 26.42H20.5374C20.5214 26.42 20.5117 26.4071 20.5117 26.3942V25.5684C20.5117 25.5524 20.5246 25.5427 20.5374 25.5427H21.3632C21.3793 25.5427 21.3889 25.5556 21.3889 25.5684V26.3942C21.3922 26.4103 21.3793 26.42 21.3632 26.42Z" fill="white"/>
<path d="M24.4284 25.1774H22.8545C22.8416 25.1774 22.833 25.1688 22.833 25.1559V24.3174C22.833 24.3045 22.8416 24.2959 22.8545 24.2959H24.4284C24.4413 24.2959 24.4499 24.3045 24.4499 24.3174V25.1559C24.4499 25.1645 24.4413 25.1774 24.4284 25.1774Z" fill="white"/>
<path d="M24.1833 9.99344H23.3404C23.3318 9.99344 23.3232 9.98484 23.3232 9.97624V9.13341C23.3232 9.12481 23.3318 9.11621 23.3404 9.11621H24.1833C24.1919 9.11621 24.2005 9.12481 24.2005 9.13341V9.97624C24.2005 9.98484 24.1919 9.99344 24.1833 9.99344Z" fill="white"/>
<path d="M24.0426 6.42841H22.4688C22.4559 6.42841 22.4473 6.41981 22.4473 6.4069V5.56838C22.4473 5.55548 22.4559 5.54688 22.4688 5.54688H24.0426C24.0555 5.54688 24.0641 5.55548 24.0641 5.56838V6.4069C24.0641 6.41551 24.0555 6.42841 24.0426 6.42841Z" fill="white"/>
<defs>
<linearGradient id="paint0_linear_288_80" x1="25.3054" y1="10.4107" x2="22.3839" y2="10.4107" gradientUnits="userSpaceOnUse">
<stop stop-color="white"/>
<stop offset="1" stop-color="white" stop-opacity="0"/>
</linearGradient>
</defs>
</svg>
