<svg width="194" height="33" viewBox="0 0 194 33" fill="none" xmlns="http://www.w3.org/2000/svg">
<path d="M131.03 26.2174C129.682 26.2174 128.514 25.9208 127.526 25.3277C126.537 24.7346 125.77 23.9048 125.225 22.8384C124.686 21.772 124.416 20.5258 124.416 19.1C124.416 17.6741 124.686 16.4249 125.225 15.3525C125.77 14.2801 126.537 13.4474 127.526 12.8543C128.514 12.2611 129.682 11.9646 131.03 11.9646C132.378 11.9646 133.547 12.2611 134.535 12.8543C135.524 13.4474 136.288 14.2801 136.827 15.3525C137.372 16.4249 137.645 17.6741 137.645 19.1C137.645 20.5258 137.372 21.772 136.827 22.8384C136.288 23.9048 135.524 24.7346 134.535 25.3277C133.547 25.9208 132.378 26.2174 131.03 26.2174ZM131.048 23.6112C131.779 23.6112 132.39 23.4105 132.882 23.0091C133.373 22.6017 133.738 22.0565 133.978 21.3736C134.224 20.6906 134.346 19.9297 134.346 19.091C134.346 18.2462 134.224 17.4824 133.978 16.7994C133.738 16.1104 133.373 15.5622 132.882 15.1548C132.39 14.7474 131.779 14.5437 131.048 14.5437C130.3 14.5437 129.676 14.7474 129.179 15.1548C128.688 15.5622 128.319 16.1104 128.074 16.7994C127.834 17.4824 127.714 18.2462 127.714 19.091C127.714 19.9297 127.834 20.6906 128.074 21.3736C128.319 22.0565 128.688 22.6017 129.179 23.0091C129.676 23.4105 130.3 23.6112 131.048 23.6112ZM145.528 26.1904C144.444 26.1904 143.473 25.9118 142.616 25.3546C141.76 24.7975 141.083 23.9887 140.585 22.9282C140.088 21.8678 139.84 20.5797 139.84 19.064C139.84 17.5303 140.091 16.2362 140.594 15.1818C141.104 14.1214 141.79 13.3216 142.652 12.7824C143.515 12.2372 144.477 11.9646 145.537 11.9646C146.346 11.9646 147.011 12.1024 147.532 12.378C148.053 12.6476 148.467 12.9741 148.772 13.3575C149.078 13.7349 149.314 14.0914 149.482 14.4269H149.617V7.54316H152.879V25.9478H149.68V23.773H149.482C149.314 24.1085 149.072 24.465 148.754 24.8424C148.437 25.2138 148.017 25.5314 147.496 25.795C146.975 26.0586 146.319 26.1904 145.528 26.1904ZM146.436 23.5214C147.125 23.5214 147.712 23.3356 148.197 22.9642C148.682 22.5868 149.051 22.0625 149.302 21.3915C149.554 20.7205 149.68 19.9387 149.68 19.046C149.68 18.1534 149.554 17.3775 149.302 16.7185C149.057 16.0595 148.691 15.5472 148.206 15.1818C147.727 14.8163 147.137 14.6336 146.436 14.6336C145.711 14.6336 145.106 14.8223 144.62 15.1998C144.135 15.5772 143.77 16.0984 143.524 16.7634C143.278 17.4284 143.156 18.1893 143.156 19.046C143.156 19.9087 143.278 20.6786 143.524 21.3556C143.776 22.0266 144.144 22.5568 144.629 22.9462C145.121 23.3297 145.723 23.5214 146.436 23.5214ZM156.346 25.9478V12.1443H159.599V25.9478H156.346ZM157.981 10.1852C157.466 10.1852 157.023 10.0145 156.651 9.67299C156.28 9.3255 156.094 8.90912 156.094 8.42385C156.094 7.93258 156.28 7.5162 156.651 7.17471C157.023 6.82722 157.466 6.65348 157.981 6.65348C158.503 6.65348 158.946 6.82722 159.311 7.17471C159.683 7.5162 159.868 7.93258 159.868 8.42385C159.868 8.90912 159.683 9.3255 159.311 9.67299C158.946 10.0145 158.503 10.1852 157.981 10.1852ZM166.197 17.8598V25.9478H162.944V12.1443H166.054V14.4898H166.215C166.533 13.717 167.039 13.1029 167.734 12.6476C168.435 12.1922 169.301 11.9646 170.331 11.9646C171.284 11.9646 172.114 12.1683 172.82 12.5757C173.533 12.9831 174.085 13.5732 174.474 14.346C174.869 15.1189 175.064 16.0565 175.058 17.1588V25.9478H171.805V17.6621C171.805 16.7395 171.565 16.0175 171.086 15.4963C170.613 14.9751 169.957 14.7145 169.118 14.7145C168.549 14.7145 168.043 14.8403 167.599 15.0919C167.162 15.3376 166.817 15.694 166.566 16.1613C166.32 16.6286 166.197 17.1948 166.197 17.8598ZM184.368 31.4116C183.2 31.4116 182.196 31.2529 181.358 30.9353C180.519 30.6238 179.845 30.2044 179.336 29.6772C178.827 29.15 178.473 28.5659 178.275 27.9248L181.205 27.2149C181.337 27.4845 181.528 27.7511 181.78 28.0147C182.032 28.2843 182.37 28.5059 182.796 28.6797C183.227 28.8594 183.769 28.9493 184.422 28.9493C185.345 28.9493 186.109 28.7246 186.714 28.2753C187.319 27.8319 187.621 27.101 187.621 26.0826V23.4674H187.46C187.292 23.8029 187.046 24.1474 186.723 24.5009C186.405 24.8544 185.983 25.1509 185.456 25.3906C184.934 25.6302 184.278 25.75 183.488 25.75C182.427 25.75 181.466 25.5014 180.603 25.0042C179.746 24.5009 179.063 23.752 178.554 22.7575C178.051 21.757 177.799 20.5049 177.799 19.0011C177.799 17.4854 178.051 16.2063 178.554 15.1638C179.063 14.1154 179.749 13.3216 180.612 12.7824C181.475 12.2372 182.436 11.9646 183.497 11.9646C184.305 11.9646 184.97 12.1024 185.492 12.378C186.019 12.6476 186.438 12.9741 186.75 13.3575C187.061 13.7349 187.298 14.0914 187.46 14.4269H187.639V12.1443H190.848V26.1724C190.848 27.3527 190.566 28.3292 190.003 29.1021C189.44 29.8749 188.67 30.453 187.693 30.8365C186.717 31.2199 185.608 31.4116 184.368 31.4116ZM184.395 23.1978C185.084 23.1978 185.671 23.0301 186.157 22.6946C186.642 22.3591 187.01 21.8768 187.262 21.2478C187.514 20.6187 187.639 19.8638 187.639 18.9831C187.639 18.1144 187.514 17.3536 187.262 16.7005C187.016 16.0475 186.651 15.5412 186.166 15.1818C185.686 14.8163 185.096 14.6336 184.395 14.6336C183.67 14.6336 183.065 14.8223 182.58 15.1998C182.095 15.5772 181.729 16.0954 181.484 16.7544C181.238 17.4075 181.115 18.1504 181.115 18.9831C181.115 19.8279 181.238 20.5678 181.484 21.2028C181.735 21.8319 182.104 22.3232 182.589 22.6766C183.08 23.0241 183.682 23.1978 184.395 23.1978Z" fill="white"/>
<path d="M122.435 0H104.767V33H122.435V0Z" fill="white"/>
<path d="M106.852 3.90312H106.164C106.157 3.90312 106.15 3.8961 106.15 3.88908V3.19763C106.15 3.19061 106.157 3.18359 106.164 3.18359H106.852C106.859 3.18359 106.866 3.19061 106.866 3.19763V3.88557C106.866 3.8961 106.859 3.90312 106.852 3.90312Z" fill="#191818"/>
<path d="M105.567 4.51716V3.88889C105.567 3.86432 105.546 3.84326 105.521 3.84326H102.254C102.229 3.84326 102.208 3.86432 102.208 3.88889V4.51716C102.208 4.54173 102.229 4.56279 102.254 4.56279H103.124C103.149 4.56279 103.17 4.58385 103.17 4.60842V5.23669C103.17 5.26126 103.191 5.28232 103.215 5.28232H106.483C106.508 5.28232 106.529 5.26126 106.529 5.23669V4.60842C106.529 4.58385 106.508 4.56279 106.483 4.56279H105.613C105.588 4.56279 105.567 4.54173 105.567 4.51716Z" fill="#191818"/>
<path d="M106.286 6.67585V6.04758C106.286 6.02301 106.307 6.00195 106.332 6.00195H109.6C109.624 6.00195 109.645 6.02301 109.645 6.04758V6.67585C109.645 6.70042 109.624 6.72148 109.6 6.72148H108.729C108.705 6.72148 108.684 6.74254 108.684 6.76711V7.39538C108.684 7.41995 108.663 7.44101 108.638 7.44101H105.37C105.346 7.44101 105.325 7.41995 105.325 7.39538V6.76711C105.325 6.74254 105.346 6.72148 105.37 6.72148H106.241C106.269 6.72148 106.286 6.70042 106.286 6.67585Z" fill="#191818"/>
<path d="M115.77 25.8152C109.175 25.8152 105.875 22.2211 105.875 15.0363C105.875 11.6318 106.707 8.99231 108.371 7.12154C110.035 5.25077 112.383 4.31714 115.415 4.31714C116.819 4.31714 118.055 4.54177 119.125 4.99455C120.196 5.44732 120.996 6.08963 121.526 6.92499L119.346 9.50125C118.904 8.90106 118.343 8.44126 117.662 8.11835C116.981 7.79544 116.24 7.63399 115.447 7.63399C113.681 7.63399 112.26 8.26577 111.193 9.52582C110.122 10.7859 109.589 12.5759 109.589 14.8924C109.589 19.9677 111.818 22.5054 116.275 22.5054C117.697 22.5054 119.101 22.2106 120.487 21.6209L121.165 24.8149C119.452 25.4818 117.655 25.8152 115.77 25.8152Z" fill="#191818"/>
<path d="M104.132 21.2701H105.268C105.274 21.2701 105.279 21.256 105.279 21.2384V19.8627C105.279 19.8451 105.274 19.8311 105.268 19.8311H104.132C104.125 19.8311 104.121 19.8451 104.121 19.8627V21.2384C104.121 21.256 104.125 21.2701 104.132 21.2701Z" fill="#191818"/>
<path d="M26.3298 26.2174C24.9818 26.2174 23.8135 25.9208 22.825 25.3277C21.8364 24.7346 21.0696 23.9048 20.5244 22.8384C19.9852 21.772 19.7156 20.5258 19.7156 19.1C19.7156 17.6741 19.9852 16.4249 20.5244 15.3525C21.0696 14.2801 21.8364 13.4474 22.825 12.8543C23.8135 12.2611 24.9818 11.9646 26.3298 11.9646C27.6777 11.9646 28.846 12.2611 29.8345 12.8543C30.8231 13.4474 31.5869 14.2801 32.1261 15.3525C32.6713 16.4249 32.9439 17.6741 32.9439 19.1C32.9439 20.5258 32.6713 21.772 32.1261 22.8384C31.5869 23.9048 30.8231 24.7346 29.8345 25.3277C28.846 25.9208 27.6777 26.2174 26.3298 26.2174ZM26.3477 23.6112C27.0786 23.6112 27.6897 23.4105 28.181 23.0091C28.6723 22.6017 29.0377 22.0565 29.2774 21.3736C29.523 20.6906 29.6458 19.9297 29.6458 19.091C29.6458 18.2462 29.523 17.4824 29.2774 16.7994C29.0377 16.1104 28.6723 15.5622 28.181 15.1548C27.6897 14.7474 27.0786 14.5437 26.3477 14.5437C25.5988 14.5437 24.9758 14.7474 24.4785 15.1548C23.9872 15.5622 23.6188 16.1104 23.3732 16.7994C23.1335 17.4824 23.0137 18.2462 23.0137 19.091C23.0137 19.9297 23.1335 20.6906 23.3732 21.3736C23.6188 22.0565 23.9872 22.6017 24.4785 23.0091C24.9758 23.4105 25.5988 23.6112 26.3477 23.6112ZM38.9582 7.54316V25.9478H35.705V7.54316H38.9582ZM48.3245 26.2174C46.9765 26.2174 45.8082 25.9208 44.8197 25.3277C43.8312 24.7346 43.0643 23.9048 42.5191 22.8384C41.9799 21.772 41.7104 20.5258 41.7104 19.1C41.7104 17.6741 41.9799 16.4249 42.5191 15.3525C43.0643 14.2801 43.8312 13.4474 44.8197 12.8543C45.8082 12.2611 46.9765 11.9646 48.3245 11.9646C49.6725 11.9646 50.8408 12.2611 51.8293 12.8543C52.8178 13.4474 53.5817 14.2801 54.1209 15.3525C54.6661 16.4249 54.9387 17.6741 54.9387 19.1C54.9387 20.5258 54.6661 21.772 54.1209 22.8384C53.5817 23.9048 52.8178 24.7346 51.8293 25.3277C50.8408 25.9208 49.6725 26.2174 48.3245 26.2174ZM48.3425 23.6112C49.0734 23.6112 49.6845 23.4105 50.1757 23.0091C50.667 22.6017 51.0325 22.0565 51.2721 21.3736C51.5177 20.6906 51.6406 19.9297 51.6406 19.091C51.6406 18.2462 51.5177 17.4824 51.2721 16.7994C51.0325 16.1104 50.667 15.5622 50.1757 15.1548C49.6845 14.7474 49.0734 14.5437 48.3425 14.5437C47.5936 14.5437 46.9705 14.7474 46.4733 15.1548C45.982 15.5622 45.6135 16.1104 45.3679 16.7994C45.1283 17.4824 45.0084 18.2462 45.0084 19.091C45.0084 19.9297 45.1283 20.6906 45.3679 21.3736C45.6135 22.0565 45.982 22.6017 46.4733 23.0091C46.9705 23.4105 47.5936 23.6112 48.3425 23.6112ZM57.6998 25.9478V12.1443H60.8541V14.4449H60.9979C61.2495 13.6481 61.6809 13.034 62.292 12.6026C62.909 12.1653 63.613 11.9466 64.4038 11.9466C64.5835 11.9466 64.7842 11.9556 65.0059 11.9736C65.2336 11.9855 65.4223 12.0065 65.5721 12.0365V15.029C65.4343 14.9811 65.2156 14.9391 64.916 14.9032C64.6225 14.8613 64.3379 14.8403 64.0623 14.8403C63.4692 14.8403 62.936 14.9691 62.4627 15.2267C61.9954 15.4783 61.6269 15.8288 61.3573 16.2782C61.0877 16.7275 60.9529 17.2457 60.9529 17.8328V25.9478H57.6998ZM75.4663 12.1443V14.6606H67.3065V12.1443H75.4663ZM69.3465 25.9478V10.8412C69.3465 9.91263 69.5382 9.13978 69.9216 8.5227C70.311 7.90562 70.8322 7.44431 71.4853 7.13876C72.1383 6.83321 72.8632 6.68044 73.66 6.68044C74.2232 6.68044 74.7234 6.72538 75.1608 6.81524C75.5981 6.90511 75.9217 6.98599 76.1313 7.05788L75.4843 9.57413C75.3465 9.5322 75.1728 9.49026 74.9631 9.44832C74.7534 9.40039 74.5197 9.37643 74.2621 9.37643C73.657 9.37643 73.2287 9.52321 72.977 9.81677C72.7314 10.1043 72.6086 10.5177 72.6086 11.0569V25.9478H69.3465ZM86.8119 20.1424V12.1443H90.0651V25.9478H86.9108V23.4944H86.767C86.4555 24.2673 85.9432 24.8993 85.2303 25.3906C84.5234 25.8819 83.6517 26.1275 82.6152 26.1275C81.7105 26.1275 80.9107 25.9268 80.2158 25.5254C79.5268 25.118 78.9876 24.5279 78.5982 23.755C78.2088 22.9762 78.014 22.0356 78.014 20.9332V12.1443H81.2672V20.43C81.2672 21.3047 81.5068 21.9996 81.9861 22.5149C82.4654 23.0301 83.0945 23.2877 83.8733 23.2877C84.3526 23.2877 84.8169 23.1709 85.2662 22.9372C85.7156 22.7036 86.084 22.3561 86.3716 21.8948C86.6652 21.4275 86.8119 20.8434 86.8119 20.1424ZM96.6635 7.54316V25.9478H93.4104V7.54316H96.6635Z" fill="#B63D37"/>
<path d="M13.4889 22.4985C12.1025 22.4985 10.9302 22.2528 9.97552 21.7614C9.86321 21.7053 9.90533 21.5368 10.0317 21.5368C10.1475 21.5368 10.1966 21.3894 10.1019 21.3227C9.02083 20.54 8.29078 19.3572 7.9082 17.7777C7.89416 17.7251 7.84853 17.6864 7.79237 17.6864H7.17112C7.11496 17.6864 7.06582 17.6478 7.05529 17.5917C6.8798 16.7844 6.79205 15.8753 6.79205 14.868C6.79205 14.0081 6.86576 13.2219 7.01317 12.5058C7.0237 12.4497 7.07284 12.4111 7.129 12.4111H7.73621C7.79237 12.4111 7.84151 12.3725 7.85204 12.3163C8.10826 11.1756 8.56104 10.2244 9.20335 9.46628C9.42447 9.20654 9.65963 8.97138 9.90884 8.76781C9.99307 8.69761 9.94393 8.55721 9.83162 8.55721H9.81056C9.68771 8.55721 9.64559 8.39576 9.75089 8.33609C10.5862 7.8412 11.555 7.5955 12.6606 7.5955C13.4573 7.5955 14.1979 7.75696 14.8823 8.08338C15.5212 8.38523 16.0547 8.80993 16.4829 9.35396C16.5285 9.41363 16.6197 9.41363 16.6654 9.35747L18.6976 6.9567C18.7327 6.9181 18.7362 6.85843 18.7081 6.8128C18.1781 6.01254 17.3919 5.39129 16.3495 4.95256C15.2755 4.49978 14.0365 4.27515 12.629 4.27515C9.58944 4.27515 7.2343 5.21229 5.5671 7.08657C5.2126 7.4867 4.89671 7.91841 4.61592 8.38874C4.56678 8.46947 4.62645 8.57125 4.7177 8.57125H5.10379C5.19505 8.57125 5.25121 8.66602 5.20909 8.74675C4.65804 9.77866 4.27897 10.9685 4.06837 12.3128C4.05784 12.3725 4.00871 12.4146 3.94904 12.4146H3.34885C3.28918 12.4146 3.24004 12.4567 3.22951 12.5164C3.11719 13.2991 3.06104 14.1344 3.06104 15.0189C3.06104 15.9315 3.11368 16.7879 3.22249 17.5847C3.22951 17.6443 3.28216 17.6864 3.34183 17.6864H3.94553C4.0052 17.6864 4.05434 17.7286 4.06487 17.7882C4.26844 19.1536 4.62996 20.3469 5.15293 21.3613C5.19505 21.442 5.13538 21.5333 5.04764 21.5333H4.62645C4.53519 21.5333 4.47552 21.6316 4.52115 21.7123C6.08305 24.45 8.90501 25.8189 12.98 25.8189C14.8332 25.8189 16.6022 25.4959 18.2869 24.8536C18.3431 24.8326 18.3747 24.7729 18.3607 24.7168L17.7394 21.7509C17.7254 21.6772 17.6446 21.6386 17.5779 21.6667C16.2337 22.2212 14.8718 22.4985 13.4889 22.4985Z" fill="url(#paint0_linear_210_1466)"/>
<path d="M0.515931 11.5127C0.277259 12.2322 0.112294 12.9833 0.0280565 13.7625C0.0210367 13.8222 0.0666651 13.8749 0.129843 13.8784L1.10559 13.91C1.15824 13.9135 1.20387 13.8713 1.21089 13.8187C1.29864 13.0465 1.47764 12.2989 1.73737 11.5969C1.7479 11.5689 1.74439 11.5373 1.73035 11.5127H0.515931Z" fill="url(#paint1_linear_210_1466)"/>
<path d="M3.82245 21.4843C2.33776 19.947 1.36903 17.9182 1.18301 15.6789C1.1795 15.6298 1.14089 15.5912 1.09175 15.5912L0.101964 15.5561C0.0458056 15.5526 -0.00333267 15.6017 0.000177223 15.6614C0.158122 17.841 0.972417 19.8522 2.25353 21.4843H3.82245Z" fill="url(#paint2_linear_210_1466)"/>
<path d="M3.79061 4.14875V3.52048C3.79061 3.49591 3.76955 3.47485 3.74498 3.47485H0.47727C0.452701 3.47485 0.431641 3.49591 0.431641 3.52048V4.14875C0.431641 4.17332 0.452701 4.19438 0.47727 4.19438H1.34772C1.37229 4.19438 1.39335 4.21544 1.39335 4.24001V4.86828C1.39335 4.89285 1.41441 4.91391 1.43898 4.91391H4.70669C4.73126 4.91391 4.75232 4.89285 4.75232 4.86828V4.24001C4.75232 4.21544 4.73126 4.19438 4.70669 4.19438H3.83624C3.81167 4.19087 3.79061 4.17332 3.79061 4.14875Z" fill="url(#paint3_linear_210_1466)"/>
<path d="M3.88227 6.4687H3.22241C3.20487 6.4687 3.19434 6.45466 3.19434 6.44062V5.78076C3.19434 5.76322 3.20838 5.75269 3.22241 5.75269H3.88227C3.89982 5.75269 3.91035 5.76673 3.91035 5.78076V6.44062C3.91035 6.45466 3.89631 6.4687 3.88227 6.4687Z" fill="#F96E31"/>
<defs>
<linearGradient id="paint0_linear_210_1466" x1="18.0651" y1="15.4754" x2="2.83098" y2="15.3007" gradientUnits="userSpaceOnUse">
<stop stop-color="#A53738"/>
<stop offset="0.263542" stop-color="#CA4335"/>
<stop offset="0.55" stop-color="#DF4E31"/>
<stop offset="0.794792" stop-color="#EC5832"/>
<stop offset="1" stop-color="#FA7031"/>
</linearGradient>
<linearGradient id="paint1_linear_210_1466" x1="2.64571" y1="13.8964" x2="-1.21207" y2="13.8964" gradientUnits="userSpaceOnUse">
<stop stop-color="#F96E31"/>
<stop offset="1" stop-color="#F96E31" stop-opacity="0"/>
</linearGradient>
<linearGradient id="paint2_linear_210_1466" x1="3.82299" y1="17.919" x2="-2.95288" y2="17.8725" gradientUnits="userSpaceOnUse">
<stop stop-color="#F96E31"/>
<stop offset="1" stop-color="#F96E31" stop-opacity="0"/>
</linearGradient>
<linearGradient id="paint3_linear_210_1466" x1="4.26053" y1="4.9104" x2="0.150621" y2="4.9104" gradientUnits="userSpaceOnUse">
<stop stop-color="#F96E31"/>
<stop offset="1" stop-color="#F96E31" stop-opacity="0"/>
</linearGradient>
</defs>
</svg>
