<svg width="47" height="41" viewBox="0 0 47 41" fill="none" xmlns="http://www.w3.org/2000/svg">
<path d="M46.9922 0H25.3452V40.43H46.9922V0Z" fill="white"/>
<path d="M27.8996 4.78168H27.0568C27.0482 4.78168 27.0396 4.77308 27.0396 4.76448V3.91735C27.0396 3.90875 27.0482 3.90015 27.0568 3.90015H27.8996C27.9082 3.90015 27.9168 3.90875 27.9168 3.91735V4.76018C27.9168 4.77308 27.9082 4.78168 27.8996 4.78168Z" fill="#191818"/>
<path d="M26.3257 5.53437V4.76464C26.3257 4.73454 26.2999 4.70874 26.2698 4.70874H22.2664C22.2363 4.70874 22.2104 4.73454 22.2104 4.76464V5.53437C22.2104 5.56447 22.2363 5.59027 22.2664 5.59027H23.3328C23.3629 5.59027 23.3887 5.61607 23.3887 5.64617V6.4159C23.3887 6.446 23.4145 6.4718 23.4446 6.4718H27.448C27.4781 6.4718 27.5039 6.446 27.5039 6.4159V5.64617C27.5039 5.61607 27.4781 5.59027 27.448 5.59027H26.3816C26.3515 5.59027 26.3257 5.56447 26.3257 5.53437Z" fill="#191818"/>
<path d="M24.6792 10.3849V9.61083C24.6792 9.58073 24.705 9.55493 24.7351 9.55493H28.2311C28.4762 9.55493 28.3816 9.74844 28.3816 9.99355C28.3816 10.2344 28.1795 10.4322 27.943 10.4322H27.5904C27.5603 10.4322 27.5388 10.458 27.5388 10.4838V11.2578C27.5388 11.2879 27.513 11.3094 27.4872 11.3094H23.5955C23.5654 11.3094 23.5439 11.2836 23.5439 11.2578V10.4838C23.5439 10.4537 23.5697 10.4322 23.5955 10.4322H24.6319C24.6577 10.4365 24.6792 10.4107 24.6792 10.3849Z" fill="url(#paint0_linear_267_245)"/>
<path d="M27.2071 8.17866V7.40893C27.2071 7.37883 27.2328 7.35303 27.2629 7.35303H31.2664C31.2965 7.35303 31.3223 7.37883 31.3223 7.40893V8.17866C31.3223 8.20876 31.2965 8.23456 31.2664 8.23456H30.2C30.1699 8.23456 30.144 8.26036 30.144 8.29046V9.06019C30.144 9.09029 30.1183 9.11609 30.0882 9.11609H26.0847C26.0546 9.11609 26.0288 9.09029 26.0288 9.06019V8.29046C26.0288 8.26036 26.0546 8.23456 26.0847 8.23456H27.1511C27.1855 8.23456 27.2071 8.20876 27.2071 8.17866Z" fill="#191818"/>
<path d="M38.8257 31.6277C30.7458 31.6277 26.7036 27.2244 26.7036 18.422C26.7036 14.2508 27.7227 11.0171 29.761 8.72513C31.7993 6.43315 34.6761 5.28931 38.3914 5.28931C40.1115 5.28931 41.6251 5.56452 42.9367 6.11924C44.2482 6.67395 45.2287 7.46088 45.878 8.48432L43.2076 11.6406C42.6658 10.9053 41.9777 10.342 41.1435 9.94637C40.3093 9.55076 39.402 9.35295 38.4301 9.35295C36.2671 9.35295 34.5256 10.127 33.2183 11.6707C31.9068 13.2145 31.2532 15.4076 31.2532 18.2457C31.2532 24.4637 33.9838 27.5727 39.445 27.5727C41.1865 27.5727 42.9066 27.2115 44.6051 26.489L45.4351 30.4022C43.3366 31.2192 41.1349 31.6277 38.8257 31.6277Z" fill="#191818"/>
<path d="M24.5676 26.059H25.9599C25.9673 26.059 25.9732 26.0417 25.9732 26.0202V24.3347C25.9732 24.3131 25.9673 24.2959 25.9599 24.2959H24.5676C24.5601 24.2959 24.5542 24.3131 24.5542 24.3347V26.0202C24.5542 26.0417 24.5601 26.059 24.5676 26.059Z" fill="#191818"/>
<path d="M16.5257 27.6286C14.8272 27.6286 13.3909 27.3276 12.2213 26.7256C12.0837 26.6568 12.1353 26.4504 12.2901 26.4504C12.432 26.4504 12.4922 26.2698 12.3761 26.1881C11.0517 25.2291 10.1572 23.78 9.68851 21.8449C9.67131 21.7804 9.6154 21.7331 9.5466 21.7331H8.78548C8.71667 21.7331 8.65647 21.6858 8.64357 21.617C8.42856 20.628 8.32106 19.5142 8.32106 18.2801C8.32106 17.2266 8.41136 16.2633 8.59197 15.3861C8.60487 15.3173 8.66507 15.27 8.73387 15.27H9.4778C9.5466 15.27 9.6068 15.2227 9.6197 15.1539C9.93361 13.7563 10.4883 12.591 11.2753 11.6622C11.5462 11.344 11.8343 11.0558 12.1396 10.8064C12.2428 10.7204 12.1826 10.5484 12.045 10.5484H12.0192C11.8687 10.5484 11.8171 10.3506 11.9461 10.2775C12.9695 9.6712 14.1564 9.37019 15.5109 9.37019C16.487 9.37019 17.3944 9.568 18.2329 9.96791C19.0155 10.3377 19.6692 10.858 20.1938 11.5246C20.2497 11.5977 20.3615 11.5977 20.4174 11.5289L22.9072 8.58756C22.9502 8.54026 22.9545 8.46716 22.9201 8.41125C22.2707 7.43082 21.3075 6.66969 20.0304 6.13218C18.7145 5.57746 17.1966 5.30225 15.4722 5.30225C11.7483 5.30225 8.86288 6.45039 6.82031 8.74667C6.38599 9.23688 5.99898 9.7658 5.65497 10.342C5.59476 10.4409 5.66787 10.5656 5.77967 10.5656H6.25269C6.36449 10.5656 6.43329 10.6817 6.38169 10.7806C5.70657 12.0449 5.24215 13.5026 4.98414 15.1496C4.97124 15.2227 4.91104 15.2743 4.83794 15.2743H4.10261C4.02951 15.2743 3.96931 15.3259 3.95641 15.399C3.8188 16.3579 3.75 17.3814 3.75 18.465C3.75 19.583 3.8145 20.6323 3.94781 21.6084C3.95641 21.6815 4.02091 21.7331 4.09401 21.7331H4.83364C4.90674 21.7331 4.96694 21.7847 4.97984 21.8578C5.22925 23.5306 5.67217 24.9926 6.31289 26.2354C6.36449 26.3343 6.29139 26.4461 6.18389 26.4461H5.66787C5.55606 26.4461 5.48296 26.5665 5.53886 26.6654C7.45243 30.0195 10.9097 31.6966 15.9022 31.6966C18.1727 31.6966 20.34 31.3009 22.404 30.514C22.4728 30.4882 22.5116 30.4151 22.4944 30.3463L21.7332 26.7127C21.716 26.6224 21.6171 26.5751 21.5354 26.6095C19.8885 27.2889 18.22 27.6286 16.5257 27.6286Z" fill="url(#paint1_linear_267_245)"/>
<path d="M0.632773 14.1692C0.340363 15.0507 0.138256 15.971 0.0350529 16.9256C0.0264526 16.9987 0.0823543 17.0632 0.159757 17.0675L1.3552 17.1062C1.4197 17.1105 1.4756 17.0589 1.4842 16.9944C1.59171 16.0484 1.81102 15.1324 2.12923 14.2724C2.14213 14.238 2.13783 14.1993 2.12063 14.1692H0.632773Z" fill="url(#paint2_linear_267_245)"/>
<path d="M4.68308 26.386C2.86412 24.5025 1.67727 22.017 1.44937 19.2735C1.44507 19.2133 1.39777 19.166 1.33756 19.166L0.124921 19.123C0.0561188 19.1187 -0.00408302 19.1789 0.000217125 19.252C0.193724 21.9224 1.19136 24.3864 2.76091 26.386H4.68308Z" fill="url(#paint3_linear_267_245)"/>
<path d="M20.9895 5.46129H19.8758C19.8586 5.46129 19.8457 5.44839 19.8457 5.43119V4.31745C19.8457 4.30025 19.8586 4.28735 19.8758 4.28735H20.9895C21.0067 4.28735 21.0196 4.30025 21.0196 4.31745V5.43119C21.0196 5.44839 21.0067 5.46129 20.9895 5.46129Z" fill="#343333"/>
<path d="M4.64454 5.14741V4.37768C4.64454 4.34758 4.61874 4.32178 4.58864 4.32178H0.5852C0.555099 4.32178 0.529297 4.34758 0.529297 4.37768V5.14741C0.529297 5.17751 0.555099 5.20331 0.5852 5.20331H1.65164C1.68174 5.20331 1.70754 5.22911 1.70754 5.25921V6.02894C1.70754 6.05904 1.73334 6.08484 1.76344 6.08484H5.76688C5.79698 6.08484 5.82278 6.05904 5.82278 6.02894V5.25921C5.82278 5.22911 5.79698 5.20331 5.76688 5.20331H4.70044C4.67034 5.19901 4.64454 5.17751 4.64454 5.14741Z" fill="url(#paint4_linear_267_245)"/>
<path d="M4.7564 7.98978H3.94797C3.92647 7.98978 3.91357 7.97258 3.91357 7.95538V7.14695C3.91357 7.12545 3.93077 7.11255 3.94797 7.11255H4.7564C4.7779 7.11255 4.7908 7.12975 4.7908 7.14695V7.95538C4.7908 7.97258 4.7736 7.98978 4.7564 7.98978Z" fill="#F96E31"/>
<path d="M21.3632 26.4202H20.5374C20.5214 26.4202 20.5117 26.4073 20.5117 26.3945V25.5687C20.5117 25.5526 20.5246 25.543 20.5374 25.543H21.3632C21.3793 25.543 21.3889 25.5558 21.3889 25.5687V26.3945C21.3922 26.4106 21.3793 26.4202 21.3632 26.4202Z" fill="#B13B37"/>
<path d="M24.4289 25.1774H22.855C22.8421 25.1774 22.8335 25.1688 22.8335 25.1559V24.3174C22.8335 24.3045 22.8421 24.2959 22.855 24.2959H24.4289C24.4418 24.2959 24.4504 24.3045 24.4504 24.3174V25.1559C24.4504 25.1645 24.4418 25.1774 24.4289 25.1774Z" fill="url(#paint5_linear_267_245)"/>
<path d="M24.1838 9.99369H23.3409C23.3323 9.99369 23.3237 9.98509 23.3237 9.97649V9.13366C23.3237 9.12506 23.3323 9.11646 23.3409 9.11646H24.1838C24.1924 9.11646 24.201 9.12506 24.201 9.13366V9.97649C24.201 9.98509 24.1924 9.99369 24.1838 9.99369Z" fill="url(#paint6_linear_267_245)"/>
<path d="M24.0426 6.42865H22.4688C22.4559 6.42865 22.4473 6.42005 22.4473 6.40715V5.56862C22.4473 5.55572 22.4559 5.54712 22.4688 5.54712H24.0426C24.0555 5.54712 24.0641 5.55572 24.0641 5.56862V6.40715C24.0641 6.41575 24.0555 6.42865 24.0426 6.42865Z" fill="url(#paint7_linear_267_245)"/>
<defs>
<linearGradient id="paint0_linear_267_245" x1="25.3054" y1="10.4107" x2="22.3839" y2="10.4107" gradientUnits="userSpaceOnUse">
<stop stop-color="white"/>
<stop offset="1" stop-color="white" stop-opacity="0"/>
</linearGradient>
<linearGradient id="paint1_linear_267_245" x1="22.1323" y1="19.0242" x2="3.46815" y2="18.8103" gradientUnits="userSpaceOnUse">
<stop stop-color="#A53738"/>
<stop offset="0.263542" stop-color="#CA4335"/>
<stop offset="0.55" stop-color="#DF4E31"/>
<stop offset="0.794792" stop-color="#EC5832"/>
<stop offset="1" stop-color="#FA7031"/>
</linearGradient>
<linearGradient id="paint2_linear_267_245" x1="3.24207" y1="17.0896" x2="-1.48428" y2="17.0896" gradientUnits="userSpaceOnUse">
<stop stop-color="#F96E31"/>
<stop offset="1" stop-color="#F96E31" stop-opacity="0"/>
</linearGradient>
<linearGradient id="paint3_linear_267_245" x1="4.68375" y1="22.0179" x2="-3.61772" y2="21.961" gradientUnits="userSpaceOnUse">
<stop stop-color="#F96E31"/>
<stop offset="1" stop-color="#F96E31" stop-opacity="0"/>
</linearGradient>
<linearGradient id="paint4_linear_267_245" x1="5.22027" y1="6.08054" x2="0.185005" y2="6.08054" gradientUnits="userSpaceOnUse">
<stop stop-color="#F96E31"/>
<stop offset="1" stop-color="#F96E31" stop-opacity="0"/>
</linearGradient>
<linearGradient id="paint5_linear_267_245" x1="23.2893" y1="24.1884" x2="25.7146" y2="24.2314" gradientUnits="userSpaceOnUse">
<stop stop-color="#B13B37"/>
<stop offset="1" stop-color="white" stop-opacity="0"/>
</linearGradient>
<linearGradient id="paint6_linear_267_245" x1="23.3194" y1="9.97648" x2="24.1795" y2="9.97648" gradientUnits="userSpaceOnUse">
<stop stop-color="#AA3938"/>
<stop offset="1" stop-color="#AA3938" stop-opacity="0"/>
</linearGradient>
<linearGradient id="paint7_linear_267_245" x1="22.9031" y1="5.43962" x2="24.3006" y2="5.43962" gradientUnits="userSpaceOnUse">
<stop stop-color="#343333"/>
<stop offset="1" stop-color="white" stop-opacity="0"/>
</linearGradient>
</defs>
</svg>
