<svg width="51" height="50" viewBox="0 0 51 50" fill="none" xmlns="http://www.w3.org/2000/svg">
<path d="M25.3618 49.3447C38.988 49.3447 50.0342 38.2985 50.0342 24.6724C50.0342 11.0462 38.988 0 25.3618 0C11.7356 0 0.689453 11.0462 0.689453 24.6724C0.689453 38.2985 11.7356 49.3447 25.3618 49.3447Z" fill="#191818"/>
<path d="M25.3626 11.9524C29.4929 11.9524 30.0046 11.9524 31.6495 12.0255C33.1481 12.0986 33.9888 12.3545 34.537 12.5738C35.2681 12.8662 35.7798 13.1952 36.3281 13.7435C36.8764 14.2917 37.2053 14.8034 37.4977 15.5345C37.717 16.0828 37.9729 16.8869 38.046 18.4221C38.1191 20.0669 38.1191 20.5421 38.1191 24.7089C38.1191 28.8393 38.1191 29.351 38.046 30.9958C37.9729 32.4945 37.717 33.3351 37.4977 33.8834C37.2053 34.6145 36.8764 35.1262 36.3281 35.6744C35.7798 36.2227 35.2681 36.5517 34.537 36.8441C33.9888 37.0634 33.1846 37.3193 31.6495 37.3924C30.0046 37.4655 29.5295 37.4655 25.3626 37.4655C21.2322 37.4655 20.7205 37.4655 19.0757 37.3924C17.5771 37.3193 16.7364 37.0634 16.1881 36.8441C15.4571 36.5517 14.9454 36.2227 14.3971 35.6744C13.8488 35.1262 13.5198 34.6145 13.2274 33.8834C13.0081 33.3351 12.7523 32.531 12.6792 30.9958C12.606 29.351 12.606 28.8758 12.606 24.7089C12.606 20.5786 12.606 20.0669 12.6792 18.4221C12.7523 16.9234 13.0081 16.0828 13.2274 15.5345C13.5198 14.8034 13.8488 14.2917 14.3971 13.7435C14.9454 13.1952 15.4571 12.8662 16.1881 12.5738C16.7364 12.3545 17.5405 12.0986 19.0757 12.0255C20.7205 11.9524 21.2322 11.9524 25.3626 11.9524ZM25.3626 9.13794C21.1591 9.13794 20.6109 9.13794 18.966 9.2476C17.3212 9.3207 16.1881 9.57656 15.2012 9.97863C14.1778 10.3807 13.3005 10.8924 12.4598 11.7697C11.5826 12.6469 11.0709 13.4876 10.6688 14.511C10.2667 15.4979 10.0109 16.631 9.93778 18.2759C9.86467 19.9207 9.82812 20.469 9.82812 24.6724C9.82812 28.8758 9.82812 29.4241 9.93778 31.0689C10.0109 32.7138 10.2667 33.8469 10.6688 34.8338C11.0709 35.8572 11.5826 36.7344 12.4598 37.5751C13.3371 38.4524 14.1778 38.9641 15.2012 39.3662C16.1881 39.7682 17.3212 40.0241 18.966 40.0972C20.6109 40.1703 21.1591 40.2069 25.3626 40.2069C29.566 40.2069 30.1143 40.2069 31.7591 40.0972C33.4039 40.0241 34.537 39.7682 35.5239 39.3662C36.5474 38.9641 37.4246 38.4524 38.2653 37.5751C39.1426 36.6979 39.6543 35.8572 40.0564 34.8338C40.4584 33.8469 40.7143 32.7138 40.7874 31.0689C40.8605 29.4241 40.897 28.8758 40.897 24.6724C40.897 20.469 40.897 19.9207 40.7874 18.2759C40.7143 16.631 40.4584 15.4979 40.0564 14.511C39.6543 13.4876 39.1426 12.6104 38.2653 11.7697C37.3881 10.8924 36.5474 10.3807 35.5239 9.97863C34.537 9.57656 33.4039 9.3207 31.7591 9.2476C30.1143 9.17449 29.566 9.13794 25.3626 9.13794Z" fill="#F96D32"/>
<path d="M25.3628 16.7039C20.94 16.7039 17.3945 20.2859 17.3945 24.6721C17.3945 29.0949 20.9766 32.6404 25.3628 32.6404C29.7855 32.6404 33.331 29.0583 33.331 24.6721C33.331 20.2859 29.7855 16.7039 25.3628 16.7039ZM25.3628 29.8625C22.5118 29.8625 20.1724 27.5597 20.1724 24.6721C20.1724 21.7845 22.4752 19.4818 25.3628 19.4818C28.2504 19.4818 30.5531 21.7845 30.5531 24.6721C30.5531 27.5597 28.2138 29.8625 25.3628 29.8625Z" fill="#F96D32"/>
<path d="M33.66 18.2759C34.6896 18.2759 35.5242 17.4413 35.5242 16.4117C35.5242 15.3822 34.6896 14.5476 33.66 14.5476C32.6305 14.5476 31.7959 15.3822 31.7959 16.4117C31.7959 17.4413 32.6305 18.2759 33.66 18.2759Z" fill="#F96D32"/>
</svg>
