<svg width="50" height="50" viewBox="0 0 50 50" fill="none" xmlns="http://www.w3.org/2000/svg">
<path d="M24.7065 49.3447C38.3327 49.3447 49.3789 38.2985 49.3789 24.6724C49.3789 11.0462 38.3327 0 24.7065 0C11.0804 0 0.0341797 11.0462 0.0341797 24.6724C0.0341797 38.2985 11.0804 49.3447 24.7065 49.3447Z" fill="#191818"/>
<path d="M26.6076 21.3096C27.0097 20.871 27.3386 20.3958 27.7773 19.9937C29.0566 18.7875 30.5552 18.1661 32.3462 18.2027C33.3331 18.2027 34.2835 18.2758 35.1973 18.5682C37.3538 19.1896 38.5966 20.6517 39.1814 22.7717C39.62 24.3434 39.6931 25.9516 39.7297 27.5599C39.7297 30.9592 39.7297 34.3585 39.7297 37.7944C39.7297 38.1234 39.6566 38.1965 39.3276 38.1965C37.5731 38.1965 35.8186 38.1965 34.0641 38.1965C33.7717 38.1965 33.6986 38.0868 33.6986 37.7944C33.6986 34.5413 33.6986 31.3247 33.6986 28.0716C33.6986 27.2675 33.6621 26.4634 33.4062 25.6592C33.0042 24.1972 31.9441 23.4661 30.409 23.5392C28.3255 23.6489 27.229 24.6723 26.9731 26.7923C26.9 27.3041 26.8635 27.8158 26.8635 28.3275C26.8635 31.471 26.8635 34.6509 26.8635 37.7944C26.8635 38.1234 26.7904 38.1965 26.4614 38.1965C24.7069 38.1965 22.9159 38.1965 21.1614 38.1965C20.869 38.1965 20.7959 38.1234 20.7959 37.8309C20.7959 31.5806 20.7959 25.3303 20.7959 19.0799C20.7959 18.7875 20.9055 18.7144 21.198 18.7144C22.8793 18.7144 24.5607 18.7144 26.2421 18.7144C26.5345 18.7144 26.6442 18.8241 26.6076 19.1165C26.6076 19.811 26.6076 20.542 26.6076 21.3096Z" fill="#F96D32"/>
<path d="M16.9953 28.4373C16.9953 31.5442 16.9953 34.6145 16.9953 37.7214C16.9953 38.0504 16.9222 38.16 16.5567 38.16C14.8022 38.1235 13.0477 38.16 11.2933 38.16C11.0008 38.16 10.9277 38.0869 10.9277 37.7945C10.9277 31.5442 10.9277 25.2938 10.9277 19.0435C10.9277 18.7876 11.0008 18.678 11.2567 18.678C13.0477 18.678 14.8022 18.678 16.5932 18.678C16.9222 18.678 16.9953 18.8242 16.9953 19.1166C16.9953 22.1869 16.9953 25.3304 16.9953 28.4373Z" fill="#F96D32"/>
<path d="M17.4701 12.4641C17.4701 14.4013 15.8983 15.9731 13.9611 15.9731C12.0604 15.9731 10.4521 14.4013 10.4521 12.5007C10.4521 10.5634 12.0239 8.9917 13.9611 8.9917C15.8983 8.9917 17.4701 10.5634 17.4701 12.4641Z" fill="#F96D32"/>
</svg>
