<svg width="130" height="130" viewBox="0 0 130 130" fill="none" xmlns="http://www.w3.org/2000/svg">
<path fill-rule="evenodd" clip-rule="evenodd" d="M67.1599 36.6242L95.5513 20.1945V53.0538L67.1599 69.4848V36.6242ZM62.8273 69.4848L34.4487 53.0538V20.1945L62.8287 36.6242L62.8273 69.4848ZM65 0L36.6086 16.4296L65 32.8592L93.3786 16.4296L65 0ZM104.636 127.249V130H25.3499V127.249C25.3499 125.735 26.577 124.499 28.097 124.499H101.902C103.41 124.499 104.636 125.735 104.636 127.249ZM91.3993 120.154H38.5894C42.3333 114.813 44.5059 109.408 45.2851 103.507H84.7177C85.4827 109.409 87.6554 114.813 91.3993 120.154ZM130 99.1636V15.8295H99.7943C99.8582 16.0233 99.8838 16.2243 99.8838 16.431V20.0349H123.637C124.838 20.0349 125.81 21.0057 125.81 22.206V92.7914C125.81 93.9917 124.838 94.9639 123.637 94.9639H6.35027C5.16155 94.9639 4.19038 93.9917 4.19038 92.7914V22.2046C4.19038 21.0043 5.16155 20.0334 6.35027 20.0334H30.1034V16.4296C30.1034 16.2229 30.1418 16.0219 30.1929 15.828H0V99.1622L130 99.1636Z" fill="#F96D32"/>
</svg>
