<svg width="107" height="130" viewBox="0 0 107 130" fill="none" xmlns="http://www.w3.org/2000/svg">
<path d="M93.8529 101.696L87.351 99.0688C87.0108 96.7818 85.5271 94.731 83.5803 93.5875L78.789 89.3632C77.0784 87.8795 75.0182 87.0762 72.7407 87.0762H55.5031H51.7324H34.3814C32.2173 87.0762 30.0437 87.8795 28.3332 89.3632L23.5418 93.5875C21.6045 94.731 20.1207 96.7818 19.7711 99.0688L13.2692 101.696C11.4453 102.376 10.3018 104.096 10.3018 106.034V117.45C10.3018 119.614 11.6721 121.447 13.7228 122.014L19.7711 123.725C20.4515 127.259 23.5418 130 27.3031 130H41.4598C43.1703 130 44.654 128.97 45.1171 127.373C46.0338 124.405 49.5683 122.232 53.4524 122.232C57.3365 122.232 60.871 124.396 61.7876 127.373C62.2413 128.97 63.725 130 65.445 130H79.6017C83.3724 130 86.4532 127.259 87.1337 123.725L93.1819 122.128C95.2327 121.561 96.603 119.727 96.603 117.563V106.034C96.7069 104.096 95.5635 102.386 93.8529 101.696ZM13.8362 117.45V106.147C13.8362 105.58 14.1764 105.117 14.6395 105.004L19.7805 102.953V120.19L14.7624 118.707C14.1764 118.593 13.8362 118.017 13.8362 117.45ZM83.9205 122.241C83.9205 124.528 81.9832 126.466 79.6962 126.466H65.5395C65.3126 126.466 65.1992 126.352 65.1992 126.239C63.8289 121.788 59.0376 118.593 53.5563 118.593C48.0751 118.593 43.2837 121.674 41.9134 126.239C41.9134 126.352 41.6866 126.466 41.5732 126.466H27.4165C25.1295 126.466 23.1921 124.528 23.1921 122.241V100.212C23.1921 97.9253 25.1295 95.9879 27.4165 95.9879H79.8096C82.0966 95.9879 84.0339 97.9253 84.0339 100.212V122.241H83.9205ZM93.2859 117.336C93.2859 117.903 92.9457 118.48 92.3692 118.593L87.351 119.964V102.726L92.4921 104.777C92.9457 105.004 93.2953 105.457 93.2953 105.92C93.2859 105.92 93.2859 117.336 93.2859 117.336Z" fill="#F96D32"/>
<path d="M98.5587 46.8552C97.7744 47.082 96.6025 46.9402 94.977 46.4583C92.9168 45.844 90.3652 44.7099 87.7947 43.2735C85.2242 41.837 82.9183 40.2588 81.3117 38.8318C79.3271 37.0646 78.6562 35.7793 79.2043 34.8059C79.7241 33.8703 81.066 33.738 83.4097 34.3901C83.8444 34.5035 84.109 34.9477 83.9956 35.3824C83.8822 35.8171 83.4381 36.0817 83.0033 35.9683C82.9939 35.9683 82.975 35.9589 82.9655 35.9589C81.6614 35.5997 80.9715 35.5903 80.688 35.6375C80.8108 35.9589 81.3212 36.7149 82.7482 37.934C84.2414 39.2003 86.311 40.5896 88.5696 41.8559C90.8283 43.1223 93.0964 44.1524 94.9676 44.7572C96.7537 45.3431 97.6609 45.3715 98.0012 45.3053C97.9161 45.088 97.6326 44.5871 96.7159 43.7082C96.3946 43.3963 96.3757 42.8766 96.6876 42.5552C96.9994 42.2339 97.5192 42.215 97.8405 42.5269C99.4471 44.0673 99.9858 45.2486 99.4943 46.137C99.2959 46.4961 98.9557 46.7512 98.5587 46.8552Z" fill="#F96D32"/>
<path d="M82.5391 39.8523C84.1834 41.1187 85.9129 42.2527 87.7273 43.2544C89.608 44.3223 91.5831 45.239 93.615 45.9856C96.1666 43.4057 96.1382 39.238 93.5583 36.6864C90.9783 34.1348 86.8107 34.1631 84.259 36.7431C83.4085 37.5936 82.8131 38.671 82.5391 39.8523Z" fill="#F96D32"/>
<path d="M86.935 44.672C85.3568 43.8026 83.8352 42.8292 82.3799 41.7708C82.6067 45.3997 85.7348 48.1498 89.3543 47.9135C90.2993 47.8568 91.2255 47.5922 92.0666 47.1386C90.2993 46.4298 88.5888 45.6076 86.935 44.672Z" fill="#F96D32"/>
<path d="M59.093 30.5912C58.8001 28.1246 56.8438 25.9983 54.1504 25.9983C51.4476 25.9983 49.5008 28.1246 49.2079 30.5912C49.0567 31.8387 49.4536 33.2846 50.1057 34.3525C51.2303 36.2047 52.5628 38.9737 53.385 40.7409C53.5834 41.1662 54.0843 41.3458 54.5096 41.1568C54.6891 41.0717 54.8403 40.93 54.9254 40.7409C55.7476 38.9737 57.0801 36.2047 58.2047 34.3525C58.8473 33.2751 59.2442 31.8292 59.093 30.5912ZM54.141 33.5114C52.988 33.5114 52.0525 32.5758 52.0525 31.4228C52.0525 30.2699 52.988 29.3343 54.141 29.3343C55.2939 29.3343 56.2295 30.2699 56.2295 31.4228C56.239 32.5758 55.3034 33.5114 54.141 33.5114Z" fill="#F96D32"/>
<path d="M71.5213 42.9525C71.5307 42.3949 71.285 41.8562 70.7936 41.5916C67.1269 39.607 55.6162 34.7023 55.6162 34.7023C54.6806 34.277 53.5938 34.277 52.6583 34.7023C52.6583 34.7023 41.1382 39.607 37.4809 41.5916C36.9895 41.8562 36.7437 42.3949 36.7532 42.9525C36.7721 43.236 36.8571 43.5006 36.9895 43.7463C39.2198 48.0273 44.4269 61.5603 44.4269 61.5603V61.5698C44.805 62.4203 45.7972 62.7983 46.6478 62.4203C47.2432 62.1557 47.6306 61.5792 47.6495 60.9272L47.7251 58.2243C47.7251 58.1676 47.7724 58.1204 47.8291 58.1298C47.8669 58.1298 47.9047 58.1582 47.9141 58.1865L52.5165 68.5537C52.9134 69.442 53.9624 69.8389 54.8507 69.4325C55.2382 69.253 55.5595 68.9411 55.7296 68.5537L60.332 58.1865C60.3509 58.1393 60.417 58.1109 60.4643 58.1393C60.5021 58.1582 60.521 58.1865 60.521 58.2243L60.5966 60.8894C60.6061 61.6927 61.1825 62.3825 61.9669 62.5432C62.7324 62.6944 63.5073 62.288 63.8098 61.5698C63.8098 61.5698 69.0264 48.0273 71.2472 43.7463C71.4268 43.51 71.5024 43.236 71.5213 42.9525ZM38.218 42.8013L53.2442 35.9875C53.8112 35.7323 54.4633 35.7323 55.0398 35.9875L70.0659 42.8013C70.0943 42.8296 70.1132 42.8769 70.1132 42.9147C70.1132 42.9619 70.0943 43.0092 70.0565 43.0281L55.4178 49.2275C54.605 49.5678 53.6884 49.5678 52.8756 49.2275L38.2369 43.0281C38.1991 42.9997 38.1802 42.9525 38.1802 42.9147C38.1708 42.8674 38.1897 42.8296 38.218 42.8013Z" fill="#F96D32"/>
<path d="M11.9643 7.81553C6.69092 11.8036 5.65137 19.3072 9.63 24.5806C13.6181 29.8539 21.1217 30.8935 26.395 26.9148C31.6684 22.9362 32.7079 15.4231 28.7293 10.1498C24.7412 4.8859 17.2376 3.84635 11.9643 7.81553ZM22.1896 24.7223C21.4241 25.3083 20.6114 25.8186 19.7609 26.2722C19.2411 26.5463 18.693 26.7825 18.1448 26.981C16.302 26.7825 14.5537 26.0548 13.1172 24.8924C15.0167 25.7146 17.1903 24.9964 18.7024 24.212C22.9834 22.0006 26.8014 16.9446 27.5574 12.5596C28.2284 13.7315 28.6537 15.0262 28.7955 16.3682C27.3212 19.6569 25.0531 22.5298 22.1896 24.7223ZM11.4728 23.2008C10.9625 22.5298 10.5467 21.8021 10.2348 21.0178C13.826 22.5676 16.6044 18.5985 21.0934 11.6051C21.736 10.6034 22.3881 9.58276 23.078 8.54321C23.7867 8.85508 24.4577 9.25199 25.072 9.72451C24.3727 10.783 23.6922 11.832 23.0401 12.8526C20.7626 16.406 18.7875 19.4868 16.6706 21.4525C16.387 21.7171 16.0941 21.9628 15.7822 22.1991C14.4875 23.1725 13.1928 23.6733 11.8887 23.6922C11.7469 23.5316 11.6051 23.3709 11.4728 23.2008ZM9.91351 14.6576C10.4427 14.4781 11.1137 14.0623 11.8887 13.4102C13.344 12.1911 14.8844 10.4238 16.2453 8.84562L17.0202 7.95728C18.1165 7.71157 19.2411 7.65487 20.3468 7.78718C19.7231 8.3731 18.8725 9.3465 17.9936 10.3671C16.3398 12.2761 14.5631 14.3174 12.8148 15.6405C11.6996 16.4816 10.5939 17.0297 9.52605 17.0675C9.5544 16.2548 9.6867 15.442 9.91351 14.6576Z" fill="#F96D32"/>
<path d="M53.4516 83.4472L43.2357 71.4735H9.21416C4.13928 71.4735 0 67.3437 0 62.2594V9.21416C0 4.13928 4.12983 0 9.21416 0H97.689C102.764 0 106.903 4.12983 106.903 9.21416V62.2688C106.903 67.3437 102.773 71.483 97.689 71.483H63.6675L53.4516 83.4472ZM9.21416 2.45711C5.49069 2.45711 2.45711 5.49069 2.45711 9.21416V62.2688C2.45711 65.9923 5.49069 69.0259 9.21416 69.0259H44.3697L53.4516 79.667L62.5334 69.0259H97.689C101.412 69.0259 104.446 65.9923 104.446 62.2688V9.21416C104.446 5.49069 101.412 2.45711 97.689 2.45711H9.21416Z" fill="#F96D32"/>
</svg>
