<svg width="50" height="50" viewBox="0 0 50 50" fill="none" xmlns="http://www.w3.org/2000/svg">
<path d="M25.0171 49.3447C38.6433 49.3447 49.6895 38.2985 49.6895 24.6724C49.6895 11.0462 38.6433 0 25.0171 0C11.3909 0 0.344727 11.0462 0.344727 24.6724C0.344727 38.2985 11.3909 49.3447 25.0171 49.3447Z" fill="#191818"/>
<path d="M40.7702 16.7407C40.4047 15.3152 39.2716 14.2186 37.8461 13.8165C35.2875 13.1221 24.9799 13.1221 24.9799 13.1221C24.9799 13.1221 14.7089 13.1221 12.1137 13.8165C10.6882 14.1821 9.59168 15.3152 9.18961 16.7407C8.49513 19.2993 8.49512 24.6724 8.49512 24.6724C8.49512 24.6724 8.49513 30.0089 9.18961 32.6041C9.55512 34.0296 10.6882 35.1262 12.1137 35.5282C14.6724 36.2227 24.9799 36.2227 24.9799 36.2227C24.9799 36.2227 35.2509 36.2227 37.8461 35.5282C39.2716 35.1627 40.3682 34.0296 40.7702 32.6041C41.4647 30.0455 41.4647 24.6724 41.4647 24.6724C41.4647 24.6724 41.4647 19.2993 40.7702 16.7407ZM21.7268 29.6069V19.7379L30.2799 24.6724L21.7268 29.6069Z" fill="#F96D32"/>
</svg>
